<svg width="297" height="1064" viewBox="0 0 297 1064" fill="none" xmlns="http://www.w3.org/2000/svg">
<g opacity="0.5">
<rect y="898" width="80" height="80" fill="#1F2326"/>
<rect y="989" width="80" height="8" fill="#1F2326"/>
<path d="M16 937.835V918L47.9451 958H31.9726L16 937.835Z" fill="#FF4656"/>
<path d="M58.6484 944.612H43.0051L64 918V937.835L58.6484 944.612Z" fill="#FF4656"/>
</g>
<rect opacity="0.5" x="2" y="1056" width="232" height="8" fill="#1F2326"/>
<rect opacity="0.5" x="2" y="70" width="40" height="8" fill="#1F2326"/>
<path d="M183.424 104.511L181.424 104.511L181.424 107.794L184.341 106.288L183.424 104.511ZM183.424 60.5186L184.311 58.7259L181.424 57.298L181.424 60.5186L183.424 60.5186ZM226.948 82.0466L227.865 83.8238L231.382 82.0086L227.835 80.2539L226.948 82.0466ZM136 128.847L135.085 127.068L134 127.627L134 128.847L136 128.847ZM136 168.003L134 168.003L134 171.341L136.943 169.766L136 168.003ZM252.064 105.915L253.007 107.678L254.064 107.113L254.064 105.915L252.064 105.915ZM252.064 58.8026L254.064 58.8026L254.064 57.5724L252.966 57.0176L252.064 58.8026ZM136 0.146571L136.902 -1.63843L134 -3.10508L134 0.146571L136 0.146571ZM136 37.1186L134 37.1186L134 38.3628L135.116 38.9127L136 37.1186ZM157.216 47.5706L159.216 47.5706L159.216 46.3263L158.1 45.7765L157.216 47.5706ZM157.216 117.927L158.131 119.705L159.216 119.147L159.216 117.927L157.216 117.927ZM185.424 104.511L185.424 60.5186L181.424 60.5186L181.424 104.511L185.424 104.511ZM182.537 62.3113L226.061 83.8393L227.835 80.2539L184.311 58.7259L182.537 62.3113ZM226.031 80.2693L182.507 102.733L184.341 106.288L227.865 83.8238L226.031 80.2693ZM134 128.847L134 168.003L138 168.003L138 128.847L134 128.847ZM136.943 169.766L253.007 107.678L251.121 104.151L135.057 166.239L136.943 169.766ZM254.064 105.915L254.064 58.8026L250.064 58.8026L250.064 105.915L254.064 105.915ZM252.966 57.0176L136.902 -1.63843L135.098 1.93157L251.162 60.5876L252.966 57.0176ZM134 0.146571L134 37.1186L138 37.1186L138 0.146571L134 0.146571ZM135.116 38.9127L156.332 49.3647L158.1 45.7765L136.884 35.3245L135.116 38.9127ZM155.216 47.5706L155.216 117.927L159.216 117.927L159.216 47.5706L155.216 47.5706ZM156.301 116.148L135.085 127.068L136.915 130.625L158.131 119.705L156.301 116.148ZM154.096 312.517L154.869 314.361L157.844 313.114L155.404 311.004L154.096 312.517ZM136 317.197L135.779 315.209L134 315.407L134 317.197L136 317.197ZM136 339.037L134 339.037L134 341.037L136 341.037L136 339.037ZM201.052 339.037L201.052 341.037L203.052 341.037L203.052 339.037L201.052 339.037ZM201.052 257.293L203.052 257.293L203.052 255.293L201.052 255.293L201.052 257.293ZM179.056 257.293L179.056 255.293L177.056 255.293L177.056 257.293L179.056 257.293ZM179.056 302.845L179.056 304.845L181.056 304.845L181.056 302.845L179.056 302.845ZM209.944 299.569L209.278 297.683L207.944 298.154L207.944 299.569L209.944 299.569ZM209.944 338.257L207.944 338.257L207.944 340.257L209.944 340.257L209.944 338.257ZM210.1 338.257L210.1 340.257L210.14 340.257L210.179 340.256L210.1 338.257ZM131.972 256.669C131.972 293.199 146.631 308.705 152.788 314.03L155.404 311.004C150.017 306.345 135.972 291.899 135.972 256.669L131.972 256.669ZM153.323 310.673C148.678 312.62 139.818 314.761 135.779 315.209L136.221 319.185C140.606 318.698 149.842 316.47 154.869 314.361L153.323 310.673ZM134 317.197L134 339.037L138 339.037L138 317.197L134 317.197ZM136 341.037L201.052 341.037L201.052 337.037L136 337.037L136 341.037ZM203.052 339.037L203.052 257.293L199.052 257.293L199.052 339.037L203.052 339.037ZM201.052 255.293L179.056 255.293L179.056 259.293L201.052 259.293L201.052 255.293ZM177.056 257.293L177.056 302.845L181.056 302.845L181.056 257.293L177.056 257.293ZM179.056 300.845L178.744 300.845L178.744 304.845L179.056 304.845L179.056 300.845ZM178.744 300.845C178.795 300.845 178.564 300.84 178.019 300.556C177.516 300.293 176.863 299.852 176.109 299.18C174.604 297.839 172.777 295.649 171.009 292.362C167.476 285.795 164.208 274.906 164.208 257.917L160.208 257.917C160.208 275.404 163.57 286.979 167.486 294.257C169.442 297.893 171.545 300.47 173.447 302.166C174.397 303.013 175.318 303.658 176.167 304.101C176.974 304.523 177.874 304.845 178.744 304.845L178.744 300.845ZM164.208 257.917C164.208 242.248 168.143 231.799 173.658 225.301C179.157 218.823 186.381 216.081 193.408 216.081L193.408 212.081C185.303 212.081 176.927 215.267 170.609 222.712C164.307 230.137 160.208 241.607 160.208 257.917L164.208 257.917ZM193.408 216.081L195.124 216.081L195.124 212.081L193.408 212.081L193.408 216.081ZM195.124 216.081C202.798 216.081 209.999 218.157 215.328 224.199C220.703 230.293 224.48 240.763 224.48 258.229L228.48 258.229C228.48 240.283 224.613 228.679 218.327 221.553C211.995 214.373 203.517 212.081 195.124 212.081L195.124 216.081ZM224.48 258.229C224.48 276.096 221.049 285.76 217.543 291.009C214.094 296.175 210.443 297.272 209.278 297.683L210.61 301.455C212.097 300.93 216.714 299.453 220.87 293.231C224.969 287.092 228.48 276.554 228.48 258.229L224.48 258.229ZM207.944 299.569L207.944 338.257L211.944 338.257L211.944 299.569L207.944 299.569ZM209.944 340.257L210.1 340.257L210.1 336.257L209.944 336.257L209.944 340.257ZM210.179 340.256C218.498 339.926 230.086 336.743 239.553 325.171C248.981 313.645 256.092 294.053 256.092 261.349L252.092 261.349C252.092 293.541 245.085 312.091 236.456 322.639C227.866 333.141 217.458 335.964 210.021 336.259L210.179 340.256ZM256.092 261.349L256.092 254.641L252.092 254.641L252.092 261.349L256.092 261.349ZM256.092 254.641C256.092 220.925 247.304 200.673 235.271 188.864C223.25 177.066 208.315 174.017 196.684 174.017L196.684 178.017C207.673 178.017 221.442 180.897 232.47 191.719C243.486 202.53 252.092 221.589 252.092 254.641L256.092 254.641ZM196.684 174.017L192.316 174.017L192.316 178.017L196.684 178.017L196.684 174.017ZM192.316 174.017C180.308 174.017 165.168 177.763 153.025 189.704C140.86 201.666 131.972 221.586 131.972 253.393L135.972 253.393C135.972 222.333 144.634 203.565 155.83 192.556C167.048 181.525 181.08 178.017 192.316 178.017L192.316 174.017ZM131.972 253.393L131.972 256.669L135.972 256.669L135.972 253.393L131.972 253.393ZM252.064 371.188L254.064 371.188L254.064 369.188L252.064 369.188L252.064 371.188ZM136 371.188L136 369.188L134 369.188L134 371.188L136 371.188ZM136 495.052L134 495.052L134 497.052L136 497.052L136 495.052ZM162.988 495.052L162.988 497.052L164.988 497.052L164.988 495.052L162.988 495.052ZM162.988 407.068L162.988 405.068L160.988 405.068L160.988 407.068L162.988 407.068ZM182.02 407.068L184.02 407.068L184.02 405.068L182.02 405.068L182.02 407.068ZM182.02 491.464L180.02 491.464L180.02 493.464L182.02 493.464L182.02 491.464ZM208.54 491.464L208.54 493.464L210.54 493.464L210.54 491.464L208.54 491.464ZM208.54 407.068L208.54 405.068L206.54 405.068L206.54 407.068L208.54 407.068ZM225.7 407.068L227.7 407.068L227.7 405.068L225.7 405.068L225.7 407.068ZM225.7 493.492L223.7 493.492L223.7 495.492L225.7 495.492L225.7 493.492ZM252.064 493.492L252.064 495.492L254.064 495.492L254.064 493.492L252.064 493.492ZM252.064 369.188L136 369.188L136 373.188L252.064 373.188L252.064 369.188ZM134 371.188L134 495.052L138 495.052L138 371.188L134 371.188ZM136 497.052L162.988 497.052L162.988 493.052L136 493.052L136 497.052ZM164.988 495.052L164.988 407.068L160.988 407.068L160.988 495.052L164.988 495.052ZM162.988 409.068L182.02 409.068L182.02 405.068L162.988 405.068L162.988 409.068ZM180.02 407.068L180.02 491.464L184.02 491.464L184.02 407.068L180.02 407.068ZM182.02 493.464L208.54 493.464L208.54 489.464L182.02 489.464L182.02 493.464ZM210.54 491.464L210.54 407.068L206.54 407.068L206.54 491.464L210.54 491.464ZM208.54 409.068L225.7 409.068L225.7 405.068L208.54 405.068L208.54 409.068ZM223.7 407.068L223.7 493.492L227.7 493.492L227.7 407.068L223.7 407.068ZM225.7 495.492L252.064 495.492L252.064 491.492L225.7 491.492L225.7 495.492ZM254.064 493.492L254.064 371.188L250.064 371.188L250.064 493.492L254.064 493.492ZM252.064 525.725L254.064 525.725L254.064 523.725L252.064 523.725L252.064 525.725ZM136 525.725L136 523.725L134 523.725L134 525.725L136 525.725ZM136 561.605L134 561.605L134 563.605L136 563.605L136 561.605ZM212.908 561.605L214.339 563.002L217.655 559.605L212.908 559.605L212.908 561.605ZM136 640.385L134.569 638.988L134 639.571L134 640.385L136 640.385ZM136 676.265L134 676.265L134 678.265L136 678.265L136 676.265ZM252.064 676.265L252.064 678.265L254.064 678.265L254.064 676.265L252.064 676.265ZM252.064 640.385L254.064 640.385L254.064 638.385L252.064 638.385L252.064 640.385ZM179.056 640.385L177.631 638.982L174.278 642.385L179.056 642.385L179.056 640.385ZM252.064 566.285L253.489 567.689L254.064 567.105L254.064 566.285L252.064 566.285ZM252.064 523.725L136 523.725L136 527.725L252.064 527.725L252.064 523.725ZM134 525.725L134 561.605L138 561.605L138 525.725L134 525.725ZM136 563.605L212.908 563.605L212.908 559.605L136 559.605L136 563.605ZM211.477 560.208L134.569 638.988L137.431 641.782L214.339 563.002L211.477 560.208ZM134 640.385L134 676.265L138 676.265L138 640.385L134 640.385ZM136 678.265L252.064 678.265L252.064 674.265L136 674.265L136 678.265ZM254.064 676.265L254.064 640.385L250.064 640.385L250.064 676.265L254.064 676.265ZM252.064 638.385L179.056 638.385L179.056 642.385L252.064 642.385L252.064 638.385ZM180.481 641.789L253.489 567.689L250.639 564.882L177.631 638.982L180.481 641.789ZM254.064 566.285L254.064 525.725L250.064 525.725L250.064 566.285L254.064 566.285ZM136 755.061L136 753.061L134 753.061L134 755.061L136 755.061ZM136 791.721L134 791.721L134 793.721L136 793.721L136 791.721ZM224.608 791.721L226.608 791.721L226.608 789.721L224.608 789.721L224.608 791.721ZM224.608 841.797L222.608 841.797L222.608 843.797L224.608 843.797L224.608 841.797ZM252.064 841.797L252.064 843.797L254.064 843.797L254.064 841.797L252.064 841.797ZM252.064 705.141L254.064 705.141L254.064 703.141L252.064 703.141L252.064 705.141ZM224.608 705.141L224.608 703.141L222.608 703.141L222.608 705.141L224.608 705.141ZM224.608 755.061L224.608 757.061L226.608 757.061L226.608 755.061L224.608 755.061ZM134 755.061L134 791.721L138 791.721L138 755.061L134 755.061ZM136 793.721L224.608 793.721L224.608 789.721L136 789.721L136 793.721ZM222.608 791.721L222.608 841.797L226.608 841.797L226.608 791.721L222.608 791.721ZM224.608 843.797L252.064 843.797L252.064 839.797L224.608 839.797L224.608 843.797ZM254.064 841.797L254.064 705.141L250.064 705.141L250.064 841.797L254.064 841.797ZM252.064 703.141L224.608 703.141L224.608 707.141L252.064 707.141L252.064 703.141ZM222.608 705.141L222.608 755.061L226.608 755.061L226.608 705.141L222.608 705.141ZM224.608 753.061L136 753.061L136 757.061L224.608 757.061L224.608 753.061ZM209.476 949.548L211.476 949.584L211.476 949.58L209.476 949.548ZM209.788 930.048L207.788 930.008L207.788 930.016L209.788 930.048ZM215.872 969.36L215.52 967.391L213.872 967.685L213.872 969.36L215.872 969.36ZM215.872 1007.11L213.872 1007.11L213.872 1009.11L215.872 1009.11L215.872 1007.11ZM183.268 922.404L181.269 922.346L181.269 922.357L183.268 922.404ZM182.8 942.372L184.799 942.43L184.799 942.419L182.8 942.372ZM177.184 902.124L177.317 904.12L179.184 903.995L179.184 902.124L177.184 902.124ZM177.184 864.216L179.184 864.216L179.184 862.216L177.184 862.216L177.184 864.216ZM131.972 942.84C131.972 972.153 136.893 989.695 144.601 999.93C152.426 1010.32 162.857 1012.86 172.816 1012.86L172.816 1008.86C163.587 1008.86 154.596 1006.55 147.796 997.524C140.878 988.337 135.972 971.871 135.972 942.84L131.972 942.84ZM172.816 1012.86L175 1012.86L175 1008.86L172.816 1008.86L172.816 1012.86ZM175 1012.86C181.027 1012.86 186.368 1011.7 190.98 1009.17C195.602 1006.64 199.367 1002.78 202.34 997.574C208.237 987.25 211.084 971.496 211.476 949.584L207.476 949.512C207.088 971.28 204.241 986.18 198.867 995.59C196.205 1000.25 192.94 1003.53 189.055 1005.67C185.16 1007.8 180.517 1008.86 175 1008.86L175 1012.86ZM211.476 949.58L211.788 930.08L207.788 930.016L207.476 949.516L211.476 949.58ZM211.788 930.087C212.021 918.262 213.274 911.935 214.883 908.612C215.662 907.005 216.469 906.217 217.182 905.8C217.901 905.379 218.73 905.216 219.772 905.216L219.772 901.216C218.318 901.216 216.709 901.443 215.162 902.348C213.608 903.257 212.319 904.731 211.283 906.868C209.266 911.032 208.023 918.122 207.788 930.008L211.788 930.087ZM219.772 905.216C220.905 905.216 221.756 905.338 222.491 905.733C223.193 906.111 224.022 906.866 224.823 908.585C226.491 912.164 227.756 919.292 227.756 933.324L231.756 933.324C231.756 919.276 230.525 911.349 228.449 906.895C227.378 904.597 226.023 903.09 224.385 902.21C222.78 901.347 221.135 901.216 219.772 901.216L219.772 905.216ZM227.756 933.324L227.756 935.82L231.756 935.82L231.756 933.324L227.756 933.324ZM227.756 935.82C227.756 950.891 225.386 958.612 222.777 962.612C221.494 964.579 220.145 965.661 218.942 966.304C217.72 966.956 216.558 967.206 215.52 967.391L216.224 971.329C217.37 971.124 219.036 970.788 220.826 969.832C222.636 968.866 224.485 967.316 226.127 964.797C229.368 959.828 231.756 951.169 231.756 935.82L227.756 935.82ZM213.872 969.36L213.872 1007.11L217.872 1007.11L217.872 969.36L213.872 969.36ZM215.872 1009.11L217.432 1009.11L217.432 1005.11L215.872 1005.11L215.872 1009.11ZM217.432 1009.11C226.71 1009.11 236.539 1005.76 243.953 995.154C251.276 984.681 256.092 967.347 256.092 939.72L252.092 939.72C252.092 967.005 247.314 983.367 240.675 992.862C234.127 1002.23 225.626 1005.11 217.432 1005.11L217.432 1009.11ZM256.092 939.72L256.092 928.956L252.092 928.956L252.092 939.72L256.092 939.72ZM256.092 928.956C256.092 902.359 251.555 886.051 244.496 876.357C237.33 866.516 227.782 863.776 218.68 863.776L218.68 867.776C226.894 867.776 235.052 870.184 241.263 878.712C247.581 887.387 252.092 902.669 252.092 928.956L256.092 928.956ZM218.68 863.776L217.276 863.776L217.276 867.776L218.68 867.776L218.68 863.776ZM217.276 863.776C207.659 863.776 198.817 867.345 192.313 876.684C185.904 885.887 181.897 900.504 181.269 922.346L185.267 922.461C185.887 900.936 189.836 887.239 195.595 878.97C201.259 870.837 208.797 867.776 217.276 867.776L217.276 863.776ZM181.269 922.357L180.801 942.325L184.799 942.419L185.267 922.451L181.269 922.357ZM180.801 942.314C180.411 955.74 179.156 962.961 177.361 966.796C176.497 968.643 175.57 969.564 174.672 970.067C173.746 970.585 172.617 970.792 171.1 970.792L171.1 974.792C172.937 974.792 174.85 974.551 176.625 973.557C178.427 972.549 179.86 970.896 180.984 968.492C183.168 963.825 184.409 955.836 184.799 942.43L180.801 942.314ZM171.1 970.792C169.715 970.792 168.544 970.599 167.509 970.027C166.492 969.466 165.403 968.427 164.393 966.372C162.311 962.136 160.776 954.041 160.776 938.784L156.776 938.784C156.776 954.103 158.283 963.011 160.803 968.136C162.094 970.761 163.696 972.491 165.575 973.529C167.435 974.556 169.365 974.792 171.1 974.792L171.1 970.792ZM160.776 938.784L160.776 936.6L156.776 936.6L156.776 938.784L160.776 938.784ZM160.776 936.6C160.776 921.82 163.596 913.84 166.93 909.529C170.187 905.317 174.155 904.33 177.317 904.12L177.051 900.128C173.193 900.386 167.957 901.661 163.765 907.082C159.65 912.404 156.776 921.428 156.776 936.6L160.776 936.6ZM179.184 902.124L179.184 864.216L175.184 864.216L175.184 902.124L179.184 902.124ZM177.184 862.216L175.468 862.216L175.468 866.216L177.184 866.216L177.184 862.216ZM175.468 862.216C167.519 862.216 156.491 864.05 147.503 873.99C138.566 883.874 131.972 901.422 131.972 932.076L135.972 932.076C135.972 901.889 142.482 885.508 150.47 876.672C158.409 867.892 168.129 866.216 175.468 866.216L175.468 862.216ZM131.972 932.076L131.972 942.84L135.972 942.84L135.972 932.076L131.972 932.076Z" fill="white"/>
</svg>
