<svg width="125" height="284" viewBox="0 0 125 284" fill="none" xmlns="http://www.w3.org/2000/svg">
<path d="M73.568 61.056L73.568 63.056L75.568 63.056L75.568 61.056L73.568 61.056ZM73.568 44.208L75.568 44.208L75.568 42.208L73.568 42.208L73.568 44.208ZM42.824 17.496L43.0051 19.4878L44.824 19.3224L44.824 17.496L42.824 17.496ZM42.824 0.503998L44.824 0.503998L44.824 -1.496L42.824 -1.496L42.824 0.503998ZM17.208 32.976C17.208 44.8656 21.1527 52.5101 26.8597 57.1296C32.4875 61.6849 39.5315 63.056 45.344 63.056L45.344 59.056C40.0685 59.056 34.0445 57.7991 29.3763 54.0204C24.7873 50.3059 21.208 43.9104 21.208 32.976L17.208 32.976ZM45.344 63.056L73.568 63.056L73.568 59.056L45.344 59.056L45.344 63.056ZM75.568 61.056L75.568 44.208L71.568 44.208L71.568 61.056L75.568 61.056ZM73.568 42.208L45.776 42.208L45.776 46.208L73.568 46.208L73.568 42.208ZM45.776 42.208C42.011 42.208 39.2579 41.2745 37.4564 39.6143C35.6837 37.9807 34.528 35.3614 34.528 31.32L30.528 31.32C30.528 36.1346 31.9283 39.9593 34.7457 42.5557C37.5342 45.1255 41.405 46.208 45.776 46.208L45.776 42.208ZM34.528 31.32L34.528 30.456L30.528 30.456L30.528 31.32L34.528 31.32ZM34.528 30.456C34.528 25.1712 36.3009 22.615 38.0099 21.2911C39.8238 19.8858 41.923 19.5862 43.0051 19.4878L42.6429 15.5042C41.3491 15.6218 38.3003 16.0062 35.5602 18.1289C32.7152 20.333 30.528 24.1488 30.528 30.456L34.528 30.456ZM44.824 17.496L44.824 0.503998L40.824 0.503998L40.824 17.496L44.824 17.496ZM42.824 -1.496L42.392 -1.496L42.392 2.504L42.824 2.504L42.824 -1.496ZM42.392 -1.496C36.9413 -1.496 30.6013 0.146227 25.6123 4.90709C20.594 9.69593 17.208 17.3857 17.208 28.944L21.208 28.944C21.208 18.1823 24.3381 11.6521 28.3738 7.8009C32.4388 3.92177 37.6908 2.504 42.392 2.504L42.392 -1.496ZM17.208 28.944L17.208 32.976L21.208 32.976L21.208 28.944L17.208 28.944ZM73.568 75.8509L75.568 75.8509L75.568 73.8509L73.568 73.8509L73.568 75.8509ZM20 75.8509L20 73.8509L18 73.8509L18 75.8509L20 75.8509ZM20 133.019L18 133.019L18 135.019L20 135.019L20 133.019ZM32.456 133.019L32.456 135.019L34.456 135.019L34.456 133.019L32.456 133.019ZM32.456 92.4109L32.456 90.4109L30.456 90.4109L30.456 92.4109L32.456 92.4109ZM41.24 92.4109L43.24 92.4109L43.24 90.4109L41.24 90.4109L41.24 92.4109ZM41.24 131.363L39.24 131.363L39.24 133.363L41.24 133.363L41.24 131.363ZM53.48 131.363L53.48 133.363L55.48 133.363L55.48 131.363L53.48 131.363ZM53.48 92.4109L53.48 90.4109L51.48 90.4109L51.48 92.4109L53.48 92.4109ZM61.4 92.4109L63.4 92.4109L63.4 90.4109L61.4 90.4109L61.4 92.4109ZM61.4 132.299L59.4 132.299L59.4 134.299L61.4 134.299L61.4 132.299ZM73.568 132.299L73.568 134.299L75.568 134.299L75.568 132.299L73.568 132.299ZM73.568 73.8509L20 73.8509L20 77.8509L73.568 77.8509L73.568 73.8509ZM18 75.8509L18 133.019L22 133.019L22 75.8509L18 75.8509ZM20 135.019L32.456 135.019L32.456 131.019L20 131.019L20 135.019ZM34.456 133.019L34.456 92.4109L30.456 92.4109L30.456 133.019L34.456 133.019ZM32.456 94.4109L41.24 94.4109L41.24 90.4109L32.456 90.4109L32.456 94.4109ZM39.24 92.4109L39.24 131.363L43.24 131.363L43.24 92.4109L39.24 92.4109ZM41.24 133.363L53.48 133.363L53.48 129.363L41.24 129.363L41.24 133.363ZM55.48 131.363L55.48 92.4109L51.48 92.4109L51.48 131.363L55.48 131.363ZM53.48 94.4109L61.4 94.4109L61.4 90.4109L53.48 90.4109L53.48 94.4109ZM59.4 92.4109L59.4 132.299L63.4 132.299L63.4 92.4109L59.4 92.4109ZM61.4 134.299L73.568 134.299L73.568 130.299L61.4 130.299L61.4 134.299ZM75.568 132.299L75.568 75.8509L71.568 75.8509L71.568 132.299L75.568 132.299ZM20 167.425L20 165.425L18 165.425L18 167.425L20 167.425ZM20 184.345L18 184.345L18 186.345L20 186.345L20 184.345ZM60.896 184.345L62.896 184.345L62.896 182.345L60.896 182.345L60.896 184.345ZM60.896 207.457L58.896 207.457L58.896 209.457L60.896 209.457L60.896 207.457ZM73.568 207.457L73.568 209.457L75.568 209.457L75.568 207.457L73.568 207.457ZM73.568 144.385L75.568 144.385L75.568 142.385L73.568 142.385L73.568 144.385ZM60.896 144.385L60.896 142.385L58.896 142.385L58.896 144.385L60.896 144.385ZM60.896 167.425L60.896 169.425L62.896 169.425L62.896 167.425L60.896 167.425ZM18 167.425L18 184.345L22 184.345L22 167.425L18 167.425ZM20 186.345L60.896 186.345L60.896 182.345L20 182.345L20 186.345ZM58.896 184.345L58.896 207.457L62.896 207.457L62.896 184.345L58.896 184.345ZM60.896 209.457L73.568 209.457L73.568 205.457L60.896 205.457L60.896 209.457ZM75.568 207.457L75.568 144.385L71.568 144.385L71.568 207.457L75.568 207.457ZM73.568 142.385L60.896 142.385L60.896 146.385L73.568 146.385L73.568 142.385ZM58.896 144.385L58.896 167.425L62.896 167.425L62.896 144.385L58.896 144.385ZM60.896 165.425L20 165.425L20 169.425L60.896 169.425L60.896 165.425ZM20 241.703L20 239.703L18 239.703L18 241.703L20 241.703ZM20 258.623L18 258.623L18 260.623L20 260.623L20 258.623ZM60.896 258.623L62.896 258.623L62.896 256.623L60.896 256.623L60.896 258.623ZM60.896 281.735L58.896 281.735L58.896 283.735L60.896 283.735L60.896 281.735ZM73.568 281.735L73.568 283.735L75.568 283.735L75.568 281.735L73.568 281.735ZM73.568 218.663L75.568 218.663L75.568 216.663L73.568 216.663L73.568 218.663ZM60.896 218.663L60.896 216.663L58.896 216.663L58.896 218.663L60.896 218.663ZM60.896 241.703L60.896 243.703L62.896 243.703L62.896 241.703L60.896 241.703ZM18 241.703L18 258.623L22 258.623L22 241.703L18 241.703ZM20 260.623L60.896 260.623L60.896 256.623L20 256.623L20 260.623ZM58.896 258.623L58.896 281.735L62.896 281.735L62.896 258.623L58.896 258.623ZM60.896 283.735L73.568 283.735L73.568 279.735L60.896 279.735L60.896 283.735ZM75.568 281.735L75.568 218.663L71.568 218.663L71.568 281.735L75.568 281.735ZM73.568 216.663L60.896 216.663L60.896 220.663L73.568 220.663L73.568 216.663ZM58.896 218.663L58.896 241.703L62.896 241.703L62.896 218.663L58.896 218.663ZM60.896 239.703L20 239.703L20 243.703L60.896 243.703L60.896 239.703Z" fill="white"/>
<path d="M99.688 12.552C99.688 21.528 102.712 23.016 105.664 23.016L106 23.016C109.552 23.016 111.184 20.304 111.304 13.584L111.352 10.584C111.424 6.936 112.12 6.456 112.888 6.456C113.656 6.456 114.424 6.768 114.424 11.088L114.424 11.472C114.424 16.152 112.96 16.512 112.288 16.632L112.288 22.44L112.528 22.44C115.216 22.44 118.168 20.52 118.168 12.072L118.168 10.416C118.168 2.28 115.384 0.696 112.72 0.695999L112.504 0.695999C109.72 0.695999 107.464 2.736 107.272 9.408L107.2 12.48C107.08 16.608 106.432 17.16 105.4 17.16C104.44 17.16 103.504 16.632 103.504 11.928L103.504 11.592C103.504 6.984 105.256 6.36 106.336 6.288L106.336 0.455999L106.072 0.455999C103.72 0.455999 99.688 1.536 99.688 10.896L99.688 12.552ZM99.64 37.5679C99.64 45.5359 103.336 46.8079 106.312 46.8079L106.744 46.8079C109.672 46.8079 113.272 45.4399 113.272 37.5679L113.272 35.8639C113.272 28.3759 109.72 26.5999 106.744 26.5999L106.312 26.5999C103.336 26.5999 99.64 28.3999 99.64 35.8879L99.64 37.5679ZM103.12 36.7279C103.12 33.0799 104.944 32.0719 106.456 32.0719L106.576 32.0719C108.208 32.0719 109.84 33.0799 109.84 36.7279L109.84 36.7519C109.84 40.3519 108.184 41.3839 106.576 41.3839L106.456 41.3839C104.944 41.3839 103.12 40.3759 103.12 36.7279ZM112.912 68.7137L112.912 63.3617L106.816 63.3617C104.704 63.3617 103.312 61.8497 103.312 59.5217C103.312 57.2417 104.608 56.2097 106.528 56.2097L112.912 56.2097L112.912 50.8097L104.872 50.8097C102.448 50.8097 99.712 52.5137 99.712 56.9537L99.712 57.1457C99.712 60.8897 101.632 62.7617 102.232 63.4097L100 63.4097L100 68.7137L112.912 68.7137ZM100 82.9191L103.552 82.9191L103.552 81.4551C103.552 80.5191 103.984 80.3751 104.68 80.3751L109.36 80.3751L109.36 82.9191L112.912 82.9191L112.912 80.3751L116.68 80.3751L116.68 75.0951L112.912 75.0951L112.912 72.5751L109.36 72.5751L109.36 75.0951L103.672 75.0951C101.44 75.0951 100 75.9591 100 78.2871L100 82.9191ZM100 87.1342L100 92.4862L106.096 92.4862C108.208 92.4862 109.6 94.0462 109.6 96.4462C109.6 98.8222 108.376 99.9022 106.384 99.9022L100 99.9022L100 105.302L108.16 105.302C110.656 105.302 113.2 103.478 113.2 99.0142L113.2 98.8462C113.2 95.0062 111.328 93.0622 110.752 92.4862L117.856 92.4862L117.856 87.1342L100 87.1342ZM100 125.516L108.424 125.516L100 134.948L100 142.244L109.696 131.492L117.856 141.764L117.856 134.66L110.416 125.516L117.856 125.516L117.856 119.924L100 119.924L100 125.516ZM99.64 154.109C99.64 162.077 103.336 163.349 106.312 163.349L106.744 163.349C109.672 163.349 113.272 161.981 113.272 154.109L113.272 152.405C113.272 144.917 109.72 143.141 106.744 143.141L106.312 143.141C103.336 143.141 99.64 144.941 99.64 152.429L99.64 154.109ZM103.12 153.269C103.12 149.621 104.944 148.613 106.456 148.613L106.576 148.613C108.208 148.613 109.84 149.621 109.84 153.269L109.84 153.293C109.84 156.893 108.184 157.925 106.576 157.925L106.456 157.925C104.944 157.925 103.12 156.917 103.12 153.269ZM106.672 172.75C108.328 172.75 109.792 173.734 109.792 175.534L109.792 175.558C109.792 177.574 108.352 178.294 106.696 178.294L106.696 183.454L107.44 183.454C110.776 183.454 113.2 181.942 113.2 178.198L113.2 177.934C113.2 174.718 111.352 173.158 110.632 172.702L112.912 172.702L112.912 167.398L100 167.398L100 172.75L106.672 172.75ZM110.272 196.519C110.272 199.231 109.456 200.479 108.088 200.839L108.088 192.199C109.456 192.607 110.272 193.807 110.272 196.495L110.272 196.519ZM104.56 206.167L104.56 200.887C104.248 200.815 102.904 200.239 102.904 196.687L102.904 196.663C102.904 193.711 103.912 192.415 105.424 192.103L105.424 206.239L106.312 206.239C109.456 206.239 113.272 204.847 113.272 197.263L113.272 195.799C113.272 188.815 110.08 186.847 106.768 186.847L106.24 186.847C102.856 186.847 99.64 189.055 99.64 195.943L99.64 197.311C99.64 205.015 102.784 206.167 104.536 206.167L104.56 206.167ZM105.736 221.661C104.2 221.661 102.664 219.813 102.664 216.957C102.664 215.133 103.432 214.605 104.128 214.605L104.152 214.605C104.896 214.605 105.136 215.181 105.352 216.549L106.144 221.661L105.736 221.661ZM101.776 221.805C100.552 221.997 100 222.813 100 223.845L100 228.189L103.504 228.189L103.504 227.493C103.504 226.941 103.768 226.821 104.152 226.821L109.096 226.821C110.968 226.821 113.272 226.341 113.272 218.853L113.272 217.533C113.272 210.333 110.608 209.829 108.904 209.829L108.856 209.829L108.856 214.797C109.288 214.869 110.296 214.989 110.296 218.181L110.296 218.301C110.296 221.445 109.72 221.661 109.24 221.661C108.832 221.661 108.64 221.445 108.568 220.845L108.016 214.941C107.656 211.077 106.528 209.517 104.152 209.517L103.984 209.517C101.776 209.517 99.76 211.173 99.76 215.517L99.76 215.829C99.76 219.621 101.08 221.253 101.776 221.805Z" fill="#FF4656"/>
</svg>
