<svg width="125" height="307" viewBox="0 0 125 307" fill="none" xmlns="http://www.w3.org/2000/svg">
<path d="M53.912 40.752L55.9117 40.7877L55.9117 40.784L53.912 40.752ZM54.056 31.752L52.0564 31.7125L52.0563 31.72L54.056 31.752ZM56.864 49.896L56.5124 47.9271L54.864 48.2215L54.864 49.896L56.864 49.896ZM56.864 67.32L54.864 67.32L54.864 69.32L56.864 69.32L56.864 67.32ZM41.816 28.224L39.8168 28.1665L39.8165 28.1771L41.816 28.224ZM41.6 37.44L43.5992 37.4981L43.5995 37.4869L41.6 37.44ZM39.008 18.864L39.141 20.8596L41.008 20.7351L41.008 18.864L39.008 18.864ZM39.008 1.368L41.008 1.368L41.008 -0.632002L39.008 -0.632002L39.008 1.368ZM17.064 37.656C17.064 51.261 19.3395 59.6468 23.1093 64.6531C26.9966 69.8154 32.1993 71.048 36.992 71.048L36.992 67.048C32.9287 67.048 29.1674 66.0486 26.3047 62.2469C23.3245 58.2892 21.064 50.979 21.064 37.656L17.064 37.656ZM36.992 71.048L38 71.048L38 67.048L36.992 67.048L36.992 71.048ZM38 71.048C40.9192 71.048 43.5717 70.4897 45.8936 69.2149C48.2249 67.935 50.0974 66.0016 51.5537 63.4519C54.4157 58.4409 55.7304 50.9396 55.9117 40.7877L51.9123 40.7163C51.7336 50.7244 50.4203 57.3711 48.0803 61.4681C46.9356 63.4724 45.5636 64.833 43.9686 65.7086C42.3643 66.5893 40.4088 67.048 38 67.048L38 71.048ZM55.9117 40.784L56.0557 31.784L52.0563 31.72L51.9123 40.72L55.9117 40.784ZM56.0556 31.7915C56.163 26.3498 56.7436 23.6355 57.377 22.3279C57.6672 21.7287 57.91 21.5501 58.0122 21.4903C58.1217 21.4263 58.2937 21.368 58.664 21.368L58.664 17.368C57.8823 17.368 56.9293 17.4897 55.9926 18.0377C55.0485 18.5899 54.3238 19.4553 53.777 20.5841C52.7364 22.7325 52.165 26.2102 52.0564 31.7125L56.0556 31.7915ZM58.664 21.368C59.1249 21.368 59.3042 21.422 59.4091 21.4784C59.4812 21.5172 59.7222 21.6635 60.0192 22.3008C60.6794 23.7176 61.272 26.7924 61.272 33.264L65.272 33.264C65.272 26.7756 64.7126 22.9024 63.6448 20.6112C63.0778 19.3945 62.3108 18.4968 61.3029 17.9551C60.3278 17.431 59.3551 17.368 58.664 17.368L58.664 21.368ZM61.272 33.264L61.272 34.416L65.272 34.416L65.272 33.264L61.272 33.264ZM61.272 34.416C61.272 41.2972 60.1827 44.6081 59.1488 46.1935C58.6538 46.9524 58.1656 47.3262 57.7737 47.5355C57.3627 47.755 56.9621 47.8468 56.5124 47.9271L57.2156 51.8649C57.7739 51.7652 58.6783 51.587 59.6578 51.064C60.6564 50.5308 61.6442 49.6896 62.4992 48.3785C64.1653 45.8239 65.272 41.5748 65.272 34.416L61.272 34.416ZM54.864 49.896L54.864 67.32L58.864 67.32L58.864 49.896L54.864 49.896ZM56.864 69.32L57.584 69.32L57.584 65.32L56.864 65.32L56.864 69.32ZM57.584 69.32C62.1583 69.32 67.0516 67.646 70.7071 62.4181C74.2712 57.3208 76.504 49.0595 76.504 36.216L72.504 36.216C72.504 48.7165 70.3088 56.0072 67.4289 60.1259C64.6404 64.1141 61.0737 65.32 57.584 65.32L57.584 69.32ZM76.504 36.216L76.504 31.248L72.504 31.248L72.504 36.216L76.504 36.216ZM76.504 31.248C76.504 18.8892 74.4033 11.0856 70.9457 6.33764C67.3806 1.44202 62.6003 0.0879987 58.16 0.0879985L58.16 4.088C61.7117 4.088 65.1034 5.10998 67.7123 8.69236C70.4287 12.4224 72.504 19.1988 72.504 31.248L76.504 31.248ZM58.16 0.0879985L57.512 0.0879985L57.512 4.088L58.16 4.088L58.16 0.0879985ZM57.512 0.0879985C52.7667 0.0879983 48.3348 1.87189 45.1068 6.50701C41.9736 11.006 40.1094 18.0003 39.8168 28.1665L43.8152 28.2815C44.0986 18.4317 45.9064 12.358 48.3892 8.79299C50.7772 5.36411 53.9053 4.088 57.512 4.088L57.512 0.0879985ZM39.8165 28.1771L39.6005 37.3931L43.5995 37.4869L43.8155 28.2709L39.8165 28.1771ZM39.6008 37.3819C39.4206 43.5836 38.838 46.7101 38.1145 48.2564C37.7858 48.9588 37.4941 49.1864 37.3226 49.2824C37.124 49.3936 36.8137 49.48 36.2 49.48L36.2 53.48C37.1343 53.48 38.228 53.3594 39.2759 52.7731C40.3509 52.1716 41.1482 51.2112 41.7375 49.9516C42.85 47.5739 43.4194 43.6804 43.5992 37.4981L39.6008 37.3819ZM36.2 49.48C35.6546 49.48 35.3192 49.4026 35.063 49.2612C34.8263 49.1304 34.4619 48.837 34.0708 48.0416C33.2276 46.3265 32.512 42.8088 32.512 35.784L28.512 35.784C28.512 42.8712 29.2004 47.2015 30.4812 49.8064C31.1521 51.171 32.0297 52.1556 33.1295 52.7628C34.2098 53.3594 35.3054 53.48 36.2 53.48L36.2 49.48ZM32.512 35.784L32.512 34.776L28.512 34.776L28.512 35.784L32.512 35.784ZM32.512 34.776C32.512 28.0603 33.7987 24.6584 35.1271 22.9404C36.379 21.3216 37.869 20.9444 39.141 20.8596L38.875 16.8684C36.907 16.9996 34.149 17.6664 31.9629 20.4936C29.8533 23.2216 28.512 27.6677 28.512 34.776L32.512 34.776ZM41.008 18.864L41.008 1.368L37.008 1.368L37.008 18.864L41.008 18.864ZM39.008 -0.632002L38.216 -0.632002L38.216 3.368L39.008 3.368L39.008 -0.632002ZM38.216 -0.632002C34.3833 -0.632003 28.9409 0.256622 24.5105 5.15666C20.1304 10.0009 17.064 18.4145 17.064 32.688L21.064 32.688C21.064 18.8815 24.0456 11.6351 27.4775 7.83934C30.8591 4.09937 34.9927 3.368 38.216 3.368L38.216 -0.632002ZM17.064 32.688L17.064 37.656L21.064 37.656L21.064 32.688L17.064 32.688ZM41.888 123.193L39.888 123.193L39.888 126.475L42.8053 124.97L41.888 123.193ZM41.888 102.889L42.7747 101.096L39.888 99.668L39.888 102.889L41.888 102.889ZM61.976 112.825L62.8933 114.602L66.4103 112.787L62.8627 111.032L61.976 112.825ZM20 134.425L19.0847 132.646L18 133.205L18 134.425L20 134.425ZM20 152.497L18 152.497L18 155.835L20.9434 154.26L20 152.497ZM73.568 123.841L74.5114 125.604L75.568 125.039L75.568 123.841L73.568 123.841ZM73.568 102.097L75.568 102.097L75.568 100.866L74.4701 100.312L73.568 102.097ZM20 75.0246L20.9021 73.2396L18 71.7729L18 75.0246L20 75.0246ZM20 92.0886L18 92.0886L18 93.3328L19.1161 93.8827L20 92.0886ZM29.792 96.9126L31.792 96.9126L31.792 95.6683L30.6759 95.1185L29.792 96.9126ZM29.792 129.385L30.7073 131.163L31.792 130.605L31.792 129.385L29.792 129.385ZM43.888 123.193L43.888 102.889L39.888 102.889L39.888 123.193L43.888 123.193ZM41.0013 104.681L61.0893 114.617L62.8627 111.032L42.7747 101.096L41.0013 104.681ZM61.0587 111.047L40.9707 121.415L42.8053 124.97L62.8933 114.602L61.0587 111.047ZM18 134.425L18 152.497L22 152.497L22 134.425L18 134.425ZM20.9434 154.26L74.5114 125.604L72.6246 122.077L19.0566 150.733L20.9434 154.26ZM75.568 123.841L75.568 102.097L71.568 102.097L71.568 123.841L75.568 123.841ZM74.4701 100.312L20.9021 73.2396L19.0979 76.8096L72.6659 103.882L74.4701 100.312ZM18 75.0246L18 92.0886L22 92.0886L22 75.0246L18 75.0246ZM19.1161 93.8827L28.9081 98.7067L30.6759 95.1185L20.8839 90.2945L19.1161 93.8827ZM27.792 96.9126L27.792 129.385L31.792 129.385L31.792 96.9126L27.792 96.9126ZM28.8767 127.606L19.0847 132.646L20.9153 136.203L30.7073 131.163L28.8767 127.606ZM28.352 219.196L29.1254 221.04L32.0998 219.793L29.6603 217.683L28.352 219.196ZM20 221.356L19.7791 219.368L18 219.565L18 221.356L20 221.356ZM20 231.436L18 231.436L18 233.436L20 233.436L20 231.436ZM50.024 231.436L50.024 233.436L52.024 233.436L52.024 231.436L50.024 231.436ZM50.024 193.708L52.024 193.708L52.024 191.708L50.024 191.708L50.024 193.708ZM39.872 193.708L39.872 191.708L37.872 191.708L37.872 193.708L39.872 193.708ZM39.872 214.732L39.872 216.732L41.872 216.732L41.872 214.732L39.872 214.732ZM54.128 213.22L53.4623 211.334L52.128 211.805L52.128 213.22L54.128 213.22ZM54.128 231.076L52.128 231.076L52.128 233.076L54.128 233.076L54.128 231.076ZM54.2 231.076L54.2 233.076L54.2396 233.076L54.2791 233.074L54.2 231.076ZM17.064 193.42C17.064 210.629 23.9954 218.072 27.0437 220.708L29.6603 217.683C27.3806 215.711 21.064 209.33 21.064 193.42L17.064 193.42ZM27.5785 217.351C25.538 218.207 21.5499 219.171 19.7791 219.368L20.2209 223.343C22.338 223.108 26.702 222.056 29.1254 221.04L27.5785 217.351ZM18 221.356L18 231.436L22 231.436L22 221.356L18 221.356ZM20 233.436L50.024 233.436L50.024 229.436L20 229.436L20 233.436ZM52.024 231.436L52.024 193.708L48.024 193.708L48.024 231.436L52.024 231.436ZM50.024 191.708L39.872 191.708L39.872 195.708L50.024 195.708L50.024 191.708ZM37.872 193.708L37.872 214.732L41.872 214.732L41.872 193.708L37.872 193.708ZM39.872 212.732L39.728 212.732L39.728 216.732L39.872 216.732L39.872 212.732ZM39.728 212.732C39.9995 212.732 40.0726 212.815 39.8919 212.72C39.7529 212.648 39.5238 212.499 39.2283 212.236C38.6409 211.713 37.872 210.806 37.1063 209.383C35.5787 206.544 34.096 201.703 34.096 193.996L30.096 193.996C30.096 202.2 31.6733 207.727 33.5837 211.278C34.5369 213.05 35.5815 214.344 36.5669 215.222C37.0578 215.66 37.5549 216.013 38.04 216.266C38.4834 216.498 39.0785 216.732 39.728 216.732L39.728 212.732ZM34.096 193.996C34.096 186.936 35.8682 182.388 38.2018 179.639C40.5185 176.909 43.5427 175.764 46.496 175.764L46.496 171.764C42.4653 171.764 38.2895 173.354 35.1522 177.05C32.0318 180.727 30.096 186.295 30.096 193.996L34.096 193.996ZM46.496 175.764L47.288 175.764L47.288 171.764L46.496 171.764L46.496 175.764ZM47.288 175.764C50.6365 175.764 53.6157 176.663 55.8051 179.146C58.041 181.681 59.76 186.207 59.76 194.14L63.76 194.14C63.76 185.728 61.951 180.067 58.8049 176.5C55.6123 172.88 51.3555 171.764 47.288 171.764L47.288 175.764ZM59.76 194.14C59.76 202.263 58.198 206.487 56.7398 208.671C55.3378 210.77 53.9132 211.174 53.4623 211.334L54.7936 215.106C55.5668 214.833 57.9582 214.049 60.0662 210.892C62.118 207.82 63.76 202.72 63.76 194.14L59.76 194.14ZM52.128 213.22L52.128 231.076L56.128 231.076L56.128 213.22L52.128 213.22ZM54.128 233.076L54.2 233.076L54.2 229.076L54.128 229.076L54.128 233.076ZM54.2791 233.074C58.3561 232.913 64.0223 231.347 68.627 225.718C73.1943 220.135 76.504 210.811 76.504 195.58L72.504 195.58C72.504 210.3 69.2976 218.581 65.531 223.185C61.8017 227.744 57.3158 228.951 54.1208 229.077L54.2791 233.074ZM76.504 195.58L76.504 192.484L72.504 192.484L72.504 195.58L76.504 195.58ZM76.504 192.484C76.504 176.744 72.3993 167.075 66.5719 161.356C60.7556 155.648 53.5491 154.196 48.008 154.196L48.008 158.196C52.9068 158.196 58.9484 159.479 63.7701 164.211C68.5807 168.932 72.504 177.407 72.504 192.484L76.504 192.484ZM48.008 154.196L45.992 154.196L45.992 158.196L48.008 158.196L48.008 154.196ZM45.992 154.196C40.2417 154.196 32.956 155.989 27.1027 161.744C21.2271 167.522 17.064 177.026 17.064 191.908L21.064 191.908C21.064 177.773 25.0009 169.421 29.9072 164.597C34.836 159.75 41.0143 158.196 45.992 158.196L45.992 154.196ZM17.064 191.908L17.064 193.42L21.064 193.42L21.064 191.908L17.064 191.908ZM73.568 246.274L75.568 246.274L75.568 244.274L73.568 244.274L73.568 246.274ZM20 246.274L20 244.274L18 244.274L18 246.274L20 246.274ZM20 303.442L18 303.442L18 305.442L20 305.442L20 303.442ZM32.456 303.442L32.456 305.442L34.456 305.442L34.456 303.442L32.456 303.442ZM32.456 262.834L32.456 260.834L30.456 260.834L30.456 262.834L32.456 262.834ZM41.24 262.834L43.24 262.834L43.24 260.834L41.24 260.834L41.24 262.834ZM41.24 301.786L39.24 301.786L39.24 303.786L41.24 303.786L41.24 301.786ZM53.48 301.786L53.48 303.786L55.48 303.786L55.48 301.786L53.48 301.786ZM53.48 262.834L53.48 260.834L51.48 260.834L51.48 262.834L53.48 262.834ZM61.4 262.834L63.4 262.834L63.4 260.834L61.4 260.834L61.4 262.834ZM61.4 302.722L59.4 302.722L59.4 304.722L61.4 304.722L61.4 302.722ZM73.568 302.722L73.568 304.722L75.568 304.722L75.568 302.722L73.568 302.722ZM73.568 244.274L20 244.274L20 248.274L73.568 248.274L73.568 244.274ZM18 246.274L18 303.442L22 303.442L22 246.274L18 246.274ZM20 305.442L32.456 305.442L32.456 301.442L20 301.442L20 305.442ZM34.456 303.442L34.456 262.834L30.456 262.834L30.456 303.442L34.456 303.442ZM32.456 264.834L41.24 264.834L41.24 260.834L32.456 260.834L32.456 264.834ZM39.24 262.834L39.24 301.786L43.24 301.786L43.24 262.834L39.24 262.834ZM41.24 303.786L53.48 303.786L53.48 299.786L41.24 299.786L41.24 303.786ZM55.48 301.786L55.48 262.834L51.48 262.834L51.48 301.786L55.48 301.786ZM53.48 264.834L61.4 264.834L61.4 260.834L53.48 260.834L53.48 264.834ZM59.4 262.834L59.4 302.722L63.4 302.722L63.4 262.834L59.4 262.834ZM61.4 304.722L73.568 304.722L73.568 300.722L61.4 300.722L61.4 304.722ZM75.568 302.722L75.568 246.274L71.568 246.274L71.568 302.722L75.568 302.722Z" fill="#FFFFFF"/>
<path d="M99.688 13.584C99.688 23.784 104.68 25.56 106.936 25.56L107.2 25.56L107.2 19.632C106.792 19.488 104.032 18.912 104.032 13.128C104.032 7.92 106.816 6.504 108.928 6.504L109.216 6.504C111.448 6.504 113.848 7.728 113.848 13.08C113.848 18.744 111.352 19.464 110.872 19.608L110.872 25.536L111.136 25.536C113.224 25.536 118.168 23.928 118.168 13.584L118.168 12.6C118.168 2.04 112.576 0.647999 109.336 0.647999L108.64 0.647999C105.472 0.647999 99.688 2.256 99.688 12.6L99.688 13.584ZM100 29.6608L100 35.0128L106.096 35.0128C108.208 35.0128 109.6 36.5728 109.6 38.9728C109.6 41.3488 108.376 42.4288 106.384 42.4288L100 42.4288L100 47.8288L108.16 47.8288C110.656 47.8288 113.2 46.0048 113.2 41.5408L113.2 41.3728C113.2 37.5328 111.328 35.5888 110.752 35.0128L117.856 35.0128L117.856 29.6608L100 29.6608ZM117.856 57.78L117.856 52.428L114.16 52.428L114.16 57.78L117.856 57.78ZM112.912 57.78L112.912 52.428L100 52.428L100 57.78L112.912 57.78ZM100 62.4452L100 67.7972L106.096 67.7972C108.208 67.7972 109.6 69.3572 109.6 71.7572C109.6 74.1332 108.376 75.2132 106.384 75.2132L100 75.2132L100 80.6132L108.16 80.6132C110.656 80.6132 113.2 78.8372 113.2 74.3252L113.2 74.1572C113.2 70.3172 111.352 68.3972 110.704 67.7492L112.912 67.7492L112.912 62.4452L100 62.4452ZM105.736 96.6124C104.2 96.6124 102.664 94.7644 102.664 91.9084C102.664 90.0844 103.432 89.5564 104.128 89.5564L104.152 89.5564C104.896 89.5564 105.136 90.1324 105.352 91.5004L106.144 96.6124L105.736 96.6124ZM101.776 96.7564C100.552 96.9484 100 97.7644 100 98.7964L100 103.14L103.504 103.14L103.504 102.444C103.504 101.892 103.768 101.772 104.152 101.772L109.096 101.772C110.968 101.772 113.272 101.292 113.272 93.8044L113.272 92.4844C113.272 85.2844 110.608 84.7804 108.904 84.7804L108.856 84.7804L108.856 89.7484C109.288 89.8204 110.296 89.9404 110.296 93.1324L110.296 93.2524C110.296 96.3964 109.72 96.6124 109.24 96.6124C108.832 96.6124 108.64 96.3964 108.568 95.7964L108.016 89.8924C107.656 86.0284 106.528 84.4684 104.152 84.4684L103.984 84.4684C101.776 84.4684 99.76 86.1244 99.76 90.4684L99.76 90.7804C99.76 94.5724 101.08 96.2044 101.776 96.7564Z" fill="#FF4656"/>
</svg>
