<svg width="125" height="515" viewBox="0 0 125 515" fill="none" xmlns="http://www.w3.org/2000/svg">
<path d="M73.568 4.104L75.568 4.104L75.568 2.104L73.568 2.104L73.568 4.104ZM20 4.104L20 2.104L18 2.104L18 4.104L20 4.104ZM20 20.88L18 20.88L18 22.88L20 22.88L20 20.88ZM37.856 20.88L39.856 20.88L39.856 18.88L37.856 18.88L37.856 20.88ZM61.4 20.88L63.4 20.88L63.4 18.88L61.4 18.88L61.4 20.88ZM49.88 20.88L49.88 18.88L47.88 18.88L47.88 20.88L49.88 20.88ZM35.856 44.28C35.856 54.0858 37.8946 60.8724 41.5096 65.2308C45.1828 69.6594 50.214 71.264 55.424 71.264L55.424 67.264C51.058 67.264 47.3052 65.9526 44.5884 62.6772C41.8134 59.3316 39.856 53.6262 39.856 44.28L35.856 44.28ZM55.424 71.264L56.144 71.264L56.144 67.264L55.424 67.264L55.424 71.264ZM56.144 71.264C61.4411 71.264 66.4547 69.7073 70.0769 65.2733C73.6292 60.9247 75.568 54.1337 75.568 44.28L71.568 44.28C71.568 53.7223 69.6908 59.4233 66.9791 62.7427C64.3372 65.9767 60.6389 67.264 56.144 67.264L56.144 71.264ZM75.568 44.28L75.568 4.104L71.568 4.104L71.568 44.28L75.568 44.28ZM73.568 2.104L20 2.104L20 6.104L73.568 6.104L73.568 2.104ZM18 4.104L18 20.88L22 20.88L22 4.104L18 4.104ZM20 22.88L37.856 22.88L37.856 18.88L20 18.88L20 22.88ZM35.856 20.88L35.856 44.28L39.856 44.28L39.856 20.88L35.856 20.88ZM59.4 20.88L59.4 43.992L63.4 43.992L63.4 20.88L59.4 20.88ZM59.4 43.992C59.4 46.5028 58.9207 47.9305 58.3398 48.696C57.8406 49.3538 57.0793 49.768 55.712 49.768L55.712 53.768C58.0167 53.768 60.0994 52.9943 61.5262 51.114C62.8713 49.3415 63.4 46.8812 63.4 43.992L59.4 43.992ZM55.712 49.768L55.496 49.768L55.496 53.768L55.712 53.768L55.712 49.768ZM55.496 49.768C54.1688 49.768 53.4215 49.3461 52.9231 48.6673C52.3413 47.8749 51.88 46.4312 51.88 43.992L47.88 43.992C47.88 46.8088 48.3907 49.2531 49.6989 51.0347C51.0905 52.9299 53.1512 53.768 55.496 53.768L55.496 49.768ZM51.88 43.992L51.88 20.88L47.88 20.88L47.88 43.992L51.88 43.992ZM49.88 22.88L61.4 22.88L61.4 18.88L49.88 18.88L49.88 22.88ZM20 82.0384L20 80.0384L18 80.0384L18 82.0384L20 82.0384ZM20 98.8144L18 98.8144L18 100.814L20 100.814L20 98.8144ZM41.096 98.8144L43.096 98.8144L43.096 96.8144L41.096 96.8144L41.096 98.8144ZM41.096 134.814L41.096 136.814L43.096 136.814L43.096 134.814L41.096 134.814ZM20 134.814L20 132.814L18 132.814L18 134.814L20 134.814ZM20 151.59L18 151.59L18 153.59L20 153.59L20 151.59ZM73.568 151.59L73.568 153.59L75.568 153.59L75.568 151.59L73.568 151.59ZM73.568 134.814L75.568 134.814L75.568 132.814L73.568 132.814L73.568 134.814ZM54.056 134.814L52.056 134.814L52.056 136.814L54.056 136.814L54.056 134.814ZM54.056 98.8144L54.056 96.8144L52.056 96.8144L52.056 98.8144L54.056 98.8144ZM73.568 98.8144L73.568 100.814L75.568 100.814L75.568 98.8144L73.568 98.8144ZM73.568 82.0384L75.568 82.0384L75.568 80.0384L73.568 80.0384L73.568 82.0384ZM18 82.0384L18 98.8144L22 98.8144L22 82.0384L18 82.0384ZM20 100.814L41.096 100.814L41.096 96.8144L20 96.8144L20 100.814ZM39.096 98.8144L39.096 134.814L43.096 134.814L43.096 98.8144L39.096 98.8144ZM41.096 132.814L20 132.814L20 136.814L41.096 136.814L41.096 132.814ZM18 134.814L18 151.59L22 151.59L22 134.814L18 134.814ZM20 153.59L73.568 153.59L73.568 149.59L20 149.59L20 153.59ZM75.568 151.59L75.568 134.814L71.568 134.814L71.568 151.59L75.568 151.59ZM73.568 132.814L54.056 132.814L54.056 136.814L73.568 136.814L73.568 132.814ZM56.056 134.814L56.056 98.8144L52.056 98.8144L52.056 134.814L56.056 134.814ZM54.056 100.814L73.568 100.814L73.568 96.8144L54.056 96.8144L54.056 100.814ZM75.568 98.8144L75.568 82.0384L71.568 82.0384L71.568 98.8144L75.568 98.8144ZM73.568 80.0384L20 80.0384L20 84.0384L73.568 84.0384L73.568 80.0384ZM76.504 202.572C76.504 185.314 72.198 175.257 66.2297 169.546C60.2684 163.842 53.0316 162.844 48.008 162.844L48.008 166.844C52.5604 166.844 58.5716 167.754 63.4643 172.436C68.35 177.111 72.504 185.918 72.504 202.572L76.504 202.572ZM48.008 162.844L45.848 162.844L45.848 166.844L48.008 166.844L48.008 162.844ZM45.848 162.844C40.8942 162.844 33.5955 163.842 27.5482 169.535C21.4855 175.241 17.064 185.3 17.064 202.572L21.064 202.572C21.064 185.932 25.3185 177.127 30.2898 172.447C35.2765 167.753 41.3698 166.844 45.848 166.844L45.848 162.844ZM17.064 202.572L17.064 205.668L21.064 205.668L21.064 202.572L17.064 202.572ZM17.064 205.668C17.064 222.871 21.4869 232.91 27.5482 238.615C33.5932 244.305 40.8894 245.324 45.848 245.324L45.848 241.324C41.3746 241.324 35.2788 240.399 30.2898 235.703C25.317 231.022 21.064 222.233 21.064 205.668L17.064 205.668ZM45.848 245.324L48.008 245.324L48.008 241.324L45.848 241.324L45.848 245.324ZM48.008 245.324C53.0417 245.324 60.274 244.286 66.231 238.576C72.1959 232.858 76.504 222.822 76.504 205.668L72.504 205.668C72.504 222.21 68.3521 231.002 63.463 235.688C58.566 240.382 52.5503 241.324 48.008 241.324L48.008 245.324ZM76.504 205.668L76.504 202.572L72.504 202.572L72.504 205.668L76.504 205.668ZM46.496 223.756C43.7934 223.756 40.8094 222.965 38.4665 220.339C36.0905 217.675 34.096 212.816 34.096 204.084L30.096 204.084C30.096 213.352 32.2055 219.329 35.4815 223.001C38.7905 226.711 43.0066 227.756 46.496 227.756L46.496 223.756ZM34.096 204.084C34.096 195.287 36.1408 190.436 38.5512 187.791C40.9342 185.177 43.9574 184.412 46.64 184.412L46.64 180.412C43.2026 180.412 38.9538 181.411 35.5948 185.097C32.2632 188.752 30.096 194.737 30.096 204.084L34.096 204.084ZM46.64 184.412L47.504 184.412L47.504 180.412L46.64 180.412L46.64 184.412ZM47.504 184.412C50.2122 184.412 53.0791 185.118 55.3187 187.659C57.6077 190.255 59.544 195.105 59.544 204.084L63.544 204.084C63.544 194.631 61.5203 188.645 58.3193 185.013C55.0689 181.326 50.9158 180.412 47.504 180.412L47.504 184.412ZM59.544 204.084C59.544 212.909 57.6121 217.77 55.3112 220.41C53.0556 222.998 50.1767 223.756 47.504 223.756L47.504 227.756C50.9512 227.756 55.0924 226.75 58.3268 223.038C61.5159 219.378 63.544 213.403 63.544 204.084L59.544 204.084ZM47.504 223.756L46.496 223.756L46.496 227.756L47.504 227.756L47.504 223.756ZM73.568 256.54L75.568 256.54L75.568 254.54L73.568 254.54L73.568 256.54ZM20 256.54L20 254.54L18 254.54L18 256.54L20 256.54ZM20 313.708L18 313.708L18 315.708L20 315.708L20 313.708ZM32.456 313.708L32.456 315.708L34.456 315.708L34.456 313.708L32.456 313.708ZM32.456 273.1L32.456 271.1L30.456 271.1L30.456 273.1L32.456 273.1ZM41.24 273.1L43.24 273.1L43.24 271.1L41.24 271.1L41.24 273.1ZM41.24 312.052L39.24 312.052L39.24 314.052L41.24 314.052L41.24 312.052ZM53.48 312.052L53.48 314.052L55.48 314.052L55.48 312.052L53.48 312.052ZM53.48 273.1L53.48 271.1L51.48 271.1L51.48 273.1L53.48 273.1ZM61.4 273.1L63.4 273.1L63.4 271.1L61.4 271.1L61.4 273.1ZM61.4 312.988L59.4 312.988L59.4 314.988L61.4 314.988L61.4 312.988ZM73.568 312.988L73.568 314.988L75.568 314.988L75.568 312.988L73.568 312.988ZM73.568 254.54L20 254.54L20 258.54L73.568 258.54L73.568 254.54ZM18 256.54L18 313.708L22 313.708L22 256.54L18 256.54ZM20 315.708L32.456 315.708L32.456 311.708L20 311.708L20 315.708ZM34.456 313.708L34.456 273.1L30.456 273.1L30.456 313.708L34.456 313.708ZM32.456 275.1L41.24 275.1L41.24 271.1L32.456 271.1L32.456 275.1ZM39.24 273.1L39.24 312.052L43.24 312.052L43.24 273.1L39.24 273.1ZM41.24 314.052L53.48 314.052L53.48 310.052L41.24 310.052L41.24 314.052ZM55.48 312.052L55.48 273.1L51.48 273.1L51.48 312.052L55.48 312.052ZM53.48 275.1L61.4 275.1L61.4 271.1L53.48 271.1L53.48 275.1ZM59.4 273.1L59.4 312.988L63.4 312.988L63.4 273.1L59.4 273.1ZM61.4 314.988L73.568 314.988L73.568 310.988L61.4 310.988L61.4 314.988ZM75.568 312.988L75.568 256.54L71.568 256.54L71.568 312.988L75.568 312.988ZM73.568 327.865L75.568 327.865L75.568 325.865L73.568 325.865L73.568 327.865ZM20 327.865L20 325.865L18 325.865L18 327.865L20 327.865ZM20 344.425L18 344.425L18 346.425L20 346.425L20 344.425ZM55.496 344.425L56.9271 345.822L60.2435 342.425L55.496 342.425L55.496 344.425ZM20 380.785L18.5689 379.388L18 379.971L18 380.785L20 380.785ZM20 397.345L18 397.345L18 399.345L20 399.345L20 397.345ZM73.568 397.345L73.568 399.345L75.568 399.345L75.568 397.345L73.568 397.345ZM73.568 380.785L75.568 380.785L75.568 378.785L73.568 378.785L73.568 380.785ZM39.872 380.785L38.4473 379.381L35.0938 382.785L39.872 382.785L39.872 380.785ZM73.568 346.585L74.9927 347.989L75.568 347.405L75.568 346.585L73.568 346.585ZM73.568 325.865L20 325.865L20 329.865L73.568 329.865L73.568 325.865ZM18 327.865L18 344.425L22 344.425L22 327.865L18 327.865ZM20 346.425L55.496 346.425L55.496 342.425L20 342.425L20 346.425ZM54.0649 343.028L18.5689 379.388L21.4311 382.182L56.9271 345.822L54.0649 343.028ZM18 380.785L18 397.345L22 397.345L22 380.785L18 380.785ZM20 399.345L73.568 399.345L73.568 395.345L20 395.345L20 399.345ZM75.568 397.345L75.568 380.785L71.568 380.785L71.568 397.345L75.568 397.345ZM73.568 378.785L39.872 378.785L39.872 382.785L73.568 382.785L73.568 378.785ZM41.2967 382.189L74.9927 347.989L72.1433 345.181L38.4473 379.381L41.2967 382.189ZM75.568 346.585L75.568 327.865L71.568 327.865L71.568 346.585L75.568 346.585ZM73.568 429.536L73.568 431.536L75.568 431.536L75.568 429.536L73.568 429.536ZM73.568 412.76L75.568 412.76L75.568 410.76L73.568 410.76L73.568 412.76ZM20 412.76L20 410.76L18 410.76L18 412.76L20 412.76ZM20 429.536L18 429.536L18 431.536L20 431.536L20 429.536ZM75.568 429.536L75.568 412.76L71.568 412.76L71.568 429.536L75.568 429.536ZM73.568 410.76L20 410.76L20 414.76L73.568 414.76L73.568 410.76ZM18 412.76L18 429.536L22 429.536L22 412.76L18 412.76ZM20 431.536L73.568 431.536L73.568 427.536L20 427.536L20 431.536ZM20 460.761L18 460.761L18 461.602L18.6013 462.191L20 460.761ZM36.632 477.033L38.0369 478.457L39.4854 477.027L38.0306 475.604L36.632 477.033ZM20 493.449L18.595 492.026L18 492.613L18 493.449L20 493.449ZM20 514.545L18 514.545L18 519.231L21.3835 515.989L20 514.545ZM47.432 488.265L48.8344 486.839L47.4503 485.478L46.0484 486.821L47.432 488.265ZM73.568 513.969L72.1656 515.395L75.568 518.741L75.568 513.969L73.568 513.969ZM73.568 493.377L75.568 493.377L75.568 492.527L74.9555 491.937L73.568 493.377ZM57.872 478.257L56.4844 476.817L54.9892 478.257L56.4844 479.698L57.872 478.257ZM73.568 463.137L74.9555 464.578L75.568 463.988L75.568 463.137L73.568 463.137ZM73.568 440.673L75.568 440.673L75.568 435.9L72.1654 439.247L73.568 440.673ZM47.072 466.737L45.6692 468.163L47.0717 469.543L48.4745 468.163L47.072 466.737ZM20 440.097L21.4028 438.672L18 435.323L18 440.097L20 440.097ZM18.6013 462.191L35.2333 478.463L38.0306 475.604L21.3986 459.332L18.6013 462.191ZM35.227 475.61L18.595 492.026L21.4049 494.873L38.0369 478.457L35.227 475.61ZM18 493.449L18 514.545L22 514.545L22 493.449L18 493.449ZM21.3835 515.989L48.8155 489.709L46.0484 486.821L18.6164 513.101L21.3835 515.989ZM46.0296 489.691L72.1656 515.395L74.9704 512.543L48.8344 486.839L46.0296 489.691ZM75.568 513.969L75.568 493.377L71.568 493.377L71.568 513.969L75.568 513.969ZM74.9555 491.937L59.2595 476.817L56.4844 479.698L72.1804 494.818L74.9555 491.937ZM59.2595 479.698L74.9555 464.578L72.1804 461.697L56.4844 476.817L59.2595 479.698ZM75.568 463.137L75.568 440.673L71.568 440.673L71.568 463.137L75.568 463.137ZM72.1654 439.247L45.6694 465.311L48.4745 468.163L74.9705 442.099L72.1654 439.247ZM48.4748 465.312L21.4028 438.672L18.5972 441.523L45.6692 468.163L48.4748 465.312ZM18 440.097L18 460.761L22 460.761L22 440.097L18 440.097Z" fill="white"/>
<path d="M99.736 13.152C99.736 22.296 105.832 24.12 109.192 24.12L117.856 24.12L117.856 18.528L109.528 18.528C107.224 18.528 104.368 17.472 104.368 12.672C104.368 7.8 107.224 6.768 109.528 6.768L117.856 6.768L117.856 1.152L109.192 1.152C105.832 1.152 99.736 2.712 99.736 12.288L99.736 13.152ZM100 28.7936L100 34.1456L106.096 34.1456C108.208 34.1456 109.6 35.7056 109.6 38.1056C109.6 40.4816 108.376 41.5616 106.384 41.5616L100 41.5616L100 46.9616L108.16 46.9616C110.656 46.9616 113.2 45.1856 113.2 40.6736L113.2 40.5056C113.2 36.6656 111.352 34.7456 110.704 34.0976L112.912 34.0976L112.912 28.7936L100 28.7936ZM117.856 56.9128L117.856 51.5608L114.16 51.5608L114.16 56.9128L117.856 56.9128ZM112.912 56.9128L112.912 51.5608L100 51.5608L100 56.9128L112.912 56.9128ZM100 71.13L103.552 71.13L103.552 69.666C103.552 68.73 103.984 68.586 104.68 68.586L109.36 68.586L109.36 71.13L112.912 71.13L112.912 68.586L116.68 68.586L116.68 63.306L112.912 63.306L112.912 60.786L109.36 60.786L109.36 63.306L103.672 63.306C101.44 63.306 100 64.17 100 66.498L100 71.13ZM110.272 84.3C110.272 87.012 109.456 88.26 108.088 88.62L108.088 79.98C109.456 80.388 110.272 81.588 110.272 84.276L110.272 84.3ZM104.56 93.948L104.56 88.668C104.248 88.596 102.904 88.02 102.904 84.468L102.904 84.444C102.904 81.492 103.912 80.196 105.424 79.884L105.424 94.02L106.312 94.02C109.456 94.02 113.272 92.628 113.272 85.044L113.272 83.58C113.272 76.596 110.08 74.628 106.768 74.628L106.24 74.628C102.856 74.628 99.64 76.836 99.64 83.724L99.64 85.092C99.64 92.796 102.784 93.948 104.536 93.948L104.56 93.948ZM106.432 112.226C104.776 112.226 103.096 110.546 103.096 107.378L103.096 107.258C103.096 104.114 104.872 102.914 106.432 102.914L106.528 102.914C108.208 102.914 109.84 103.85 109.84 107.21L109.84 107.33C109.84 110.498 108.208 112.226 106.528 112.226L106.432 112.226ZM117.856 112.226L111.184 112.226C111.712 111.626 113.224 109.778 113.224 105.746L113.224 105.362C113.224 99.5781 110.248 97.4421 106.792 97.4421L106.336 97.4421C102.712 97.4421 99.688 99.8421 99.688 105.578L99.688 105.89C99.688 110.042 101.464 111.914 101.968 112.274L100 112.274L100 117.602L117.856 117.602L117.856 112.226ZM100 137.877L108.424 137.877L100 147.309L100 154.605L109.696 143.853L117.856 154.125L117.856 147.021L110.416 137.877L117.856 137.877L117.856 132.285L100 132.285L100 137.877ZM117.856 163.024L117.856 157.672L114.16 157.672L114.16 163.024L117.856 163.024ZM112.912 163.024L112.912 157.672L100 157.672L100 163.024L112.912 163.024ZM100 167.689L100 173.041L106.096 173.041C108.208 173.041 109.6 174.601 109.6 177.001C109.6 179.377 108.376 180.457 106.384 180.457L100 180.457L100 185.857L108.16 185.857C110.656 185.857 113.2 184.081 113.2 179.569L113.2 179.401C113.2 175.561 111.352 173.641 110.704 172.993L112.912 172.993L112.912 167.689L100 167.689ZM109.864 199.864C109.864 203.224 108.472 204.736 106.936 204.736L106.84 204.736C105.352 204.736 103.864 203.248 103.864 199.864L103.864 199.72C103.864 196.432 105.4 195.304 106.864 195.304L106.984 195.304C108.424 195.304 109.864 196.264 109.864 199.72L109.864 199.864ZM95.32 201.136C95.32 209.056 100.024 210.208 102.352 210.208L112.912 210.208L112.912 204.832L111.184 204.832C111.832 204.136 113.224 202.408 113.224 198.112L113.224 197.608C113.224 191.872 110.344 189.856 107.224 189.856L106.744 189.856C103.408 189.856 100.576 192.232 100.576 198.28L100.576 198.568C100.576 202.624 101.944 204.208 102.52 204.856C100.864 204.856 98.8 204.232 98.8 200.248L98.8 200.176C98.8 196.504 99.688 196.12 100 196.048L100 190.648L99.928 190.648C98.896 190.648 95.32 191.32 95.32 199.432L95.32 201.136ZM106.432 229.048C104.776 229.048 103.096 227.368 103.096 224.2L103.096 224.08C103.096 220.936 104.872 219.736 106.432 219.736L106.528 219.736C108.208 219.736 109.84 220.672 109.84 224.032L109.84 224.152C109.84 227.32 108.208 229.048 106.528 229.048L106.432 229.048ZM117.856 229.048L111.184 229.048C111.712 228.448 113.224 226.6 113.224 222.568L113.224 222.184C113.224 216.4 110.248 214.264 106.792 214.264L106.336 214.264C102.712 214.264 99.688 216.664 99.688 222.4L99.688 222.712C99.688 226.864 101.464 228.736 101.968 229.096L100 229.096L100 234.424L117.856 234.424L117.856 229.048ZM99.64 249.452C99.64 257.42 103.336 258.692 106.312 258.692L106.744 258.692C109.672 258.692 113.272 257.324 113.272 249.452L113.272 247.748C113.272 240.26 109.72 238.484 106.744 238.484L106.312 238.484C103.336 238.484 99.64 240.284 99.64 247.772L99.64 249.452ZM103.12 248.612C103.12 244.964 104.944 243.956 106.456 243.956L106.576 243.956C108.208 243.956 109.84 244.964 109.84 248.612L109.84 248.636C109.84 252.236 108.184 253.268 106.576 253.268L106.456 253.268C104.944 253.268 103.12 252.26 103.12 248.612ZM100 268.094L106.096 268.094C108.112 268.094 109.6 269.486 109.6 271.79C109.6 273.902 108.28 274.742 106.384 274.742L100 274.742L100 280.142L106.096 280.142C108.112 280.142 109.6 281.534 109.6 283.838C109.6 285.95 108.28 286.766 106.384 286.766L100 286.766L100 292.166L108.16 292.166C110.584 292.166 113.2 290.51 113.2 286.214L113.2 286.022C113.2 282.566 111.592 280.478 110.632 279.518C112.072 278.726 113.2 277.118 113.2 274.358L113.2 274.19C113.2 270.446 111.28 268.646 110.68 268.046L112.912 268.046L112.912 262.742L100 262.742L100 268.094Z" fill="#FF4656"/>
</svg>
