<svg width="125" height="312" viewBox="0 0 125 312" fill="none" xmlns="http://www.w3.org/2000/svg">
<path d="M53.912 40.752L55.9117 40.7877L55.9117 40.784L53.912 40.752ZM54.056 31.752L52.0564 31.7125L52.0563 31.72L54.056 31.752ZM56.864 49.896L56.5124 47.9271L54.864 48.2215L54.864 49.896L56.864 49.896ZM56.864 67.32L54.864 67.32L54.864 69.32L56.864 69.32L56.864 67.32ZM41.816 28.224L39.8168 28.1665L39.8165 28.1771L41.816 28.224ZM41.6 37.44L43.5992 37.4981L43.5995 37.4869L41.6 37.44ZM39.008 18.864L39.141 20.8596L41.008 20.7351L41.008 18.864L39.008 18.864ZM39.008 1.368L41.008 1.368L41.008 -0.632002L39.008 -0.632002L39.008 1.368ZM17.064 37.656C17.064 51.261 19.3395 59.6468 23.1093 64.6531C26.9966 69.8154 32.1993 71.048 36.992 71.048L36.992 67.048C32.9287 67.048 29.1674 66.0486 26.3047 62.2469C23.3245 58.2892 21.064 50.979 21.064 37.656L17.064 37.656ZM36.992 71.048L38 71.048L38 67.048L36.992 67.048L36.992 71.048ZM38 71.048C40.9192 71.048 43.5717 70.4897 45.8936 69.2149C48.2249 67.935 50.0974 66.0016 51.5537 63.4519C54.4157 58.4409 55.7304 50.9396 55.9117 40.7877L51.9123 40.7163C51.7336 50.7244 50.4203 57.3711 48.0803 61.4681C46.9356 63.4724 45.5636 64.833 43.9686 65.7086C42.3643 66.5893 40.4088 67.048 38 67.048L38 71.048ZM55.9117 40.784L56.0557 31.784L52.0563 31.72L51.9123 40.72L55.9117 40.784ZM56.0556 31.7915C56.163 26.3498 56.7436 23.6355 57.377 22.3279C57.6672 21.7287 57.91 21.5501 58.0122 21.4903C58.1217 21.4263 58.2937 21.368 58.664 21.368L58.664 17.368C57.8823 17.368 56.9293 17.4897 55.9926 18.0377C55.0485 18.5899 54.3238 19.4553 53.777 20.5841C52.7364 22.7325 52.165 26.2102 52.0564 31.7125L56.0556 31.7915ZM58.664 21.368C59.1249 21.368 59.3042 21.422 59.4091 21.4784C59.4812 21.5172 59.7222 21.6635 60.0192 22.3008C60.6794 23.7176 61.272 26.7924 61.272 33.264L65.272 33.264C65.272 26.7756 64.7126 22.9024 63.6448 20.6112C63.0778 19.3945 62.3108 18.4968 61.3029 17.9551C60.3278 17.431 59.3551 17.368 58.664 17.368L58.664 21.368ZM61.272 33.264L61.272 34.416L65.272 34.416L65.272 33.264L61.272 33.264ZM61.272 34.416C61.272 41.2972 60.1827 44.6081 59.1488 46.1935C58.6538 46.9524 58.1656 47.3262 57.7737 47.5355C57.3627 47.755 56.9621 47.8468 56.5124 47.9271L57.2156 51.8649C57.7739 51.7652 58.6783 51.587 59.6578 51.064C60.6564 50.5308 61.6442 49.6896 62.4992 48.3785C64.1653 45.8239 65.272 41.5748 65.272 34.416L61.272 34.416ZM54.864 49.896L54.864 67.32L58.864 67.32L58.864 49.896L54.864 49.896ZM56.864 69.32L57.584 69.32L57.584 65.32L56.864 65.32L56.864 69.32ZM57.584 69.32C62.1583 69.32 67.0516 67.646 70.7071 62.4181C74.2712 57.3208 76.504 49.0595 76.504 36.216L72.504 36.216C72.504 48.7165 70.3088 56.0072 67.4289 60.1259C64.6404 64.1141 61.0737 65.32 57.584 65.32L57.584 69.32ZM76.504 36.216L76.504 31.248L72.504 31.248L72.504 36.216L76.504 36.216ZM76.504 31.248C76.504 18.8892 74.4033 11.0856 70.9457 6.33764C67.3806 1.44202 62.6003 0.0879987 58.16 0.0879985L58.16 4.088C61.7117 4.088 65.1034 5.10998 67.7123 8.69236C70.4287 12.4224 72.504 19.1988 72.504 31.248L76.504 31.248ZM58.16 0.0879985L57.512 0.0879985L57.512 4.088L58.16 4.088L58.16 0.0879985ZM57.512 0.0879985C52.7667 0.0879983 48.3348 1.87189 45.1068 6.50701C41.9736 11.006 40.1094 18.0003 39.8168 28.1665L43.8152 28.2815C44.0986 18.4317 45.9064 12.358 48.3892 8.79299C50.7772 5.36411 53.9053 4.088 57.512 4.088L57.512 0.0879985ZM39.8165 28.1771L39.6005 37.3931L43.5995 37.4869L43.8155 28.2709L39.8165 28.1771ZM39.6008 37.3819C39.4206 43.5836 38.838 46.7101 38.1145 48.2564C37.7858 48.9588 37.4941 49.1864 37.3226 49.2824C37.124 49.3936 36.8137 49.48 36.2 49.48L36.2 53.48C37.1343 53.48 38.228 53.3594 39.2759 52.7731C40.3509 52.1716 41.1482 51.2112 41.7375 49.9516C42.85 47.5739 43.4194 43.6804 43.5992 37.4981L39.6008 37.3819ZM36.2 49.48C35.6546 49.48 35.3192 49.4026 35.063 49.2612C34.8263 49.1304 34.4619 48.837 34.0708 48.0416C33.2276 46.3265 32.512 42.8088 32.512 35.784L28.512 35.784C28.512 42.8712 29.2004 47.2015 30.4812 49.8064C31.1521 51.171 32.0297 52.1556 33.1295 52.7628C34.2098 53.3594 35.3054 53.48 36.2 53.48L36.2 49.48ZM32.512 35.784L32.512 34.776L28.512 34.776L28.512 35.784L32.512 35.784ZM32.512 34.776C32.512 28.0603 33.7987 24.6584 35.1271 22.9404C36.379 21.3216 37.869 20.9444 39.141 20.8596L38.875 16.8684C36.907 16.9996 34.149 17.6664 31.9629 20.4936C29.8533 23.2216 28.512 27.6677 28.512 34.776L32.512 34.776ZM41.008 18.864L41.008 1.368L37.008 1.368L37.008 18.864L41.008 18.864ZM39.008 -0.632002L38.216 -0.632002L38.216 3.368L39.008 3.368L39.008 -0.632002ZM38.216 -0.632002C34.3833 -0.632003 28.9409 0.256622 24.5105 5.15666C20.1304 10.0009 17.064 18.4145 17.064 32.688L21.064 32.688C21.064 18.8815 24.0456 11.6351 27.4775 7.83934C30.8591 4.09937 34.9927 3.368 38.216 3.368L38.216 -0.632002ZM17.064 32.688L17.064 37.656L21.064 37.656L21.064 32.688L17.064 32.688ZM76.504 117.536C76.504 100.278 72.198 90.221 66.2297 84.51C60.2684 78.8057 53.0316 77.8081 48.008 77.8081L48.008 81.8081C52.5604 81.8081 58.5716 82.7184 63.4643 87.4001C68.35 92.0751 72.504 100.882 72.504 117.536L76.504 117.536ZM48.008 77.8081L45.848 77.8081L45.848 81.8081L48.008 81.8081L48.008 77.8081ZM45.848 77.8081C40.8942 77.8081 33.5955 78.8066 27.5482 84.4987C21.4855 90.2053 17.064 100.264 17.064 117.536L21.064 117.536C21.064 100.896 25.3185 92.0908 30.2898 87.4114C35.2765 82.7175 41.3698 81.8081 45.848 81.8081L45.848 77.8081ZM17.064 117.536L17.064 120.632L21.064 120.632L21.064 117.536L17.064 117.536ZM17.064 120.632C17.064 137.835 21.4869 147.874 27.5482 153.579C33.5932 159.269 40.8894 160.288 45.848 160.288L45.848 156.288C41.3746 156.288 35.2788 155.363 30.2898 150.667C25.317 145.986 21.064 137.197 21.064 120.632L17.064 120.632ZM45.848 160.288L48.008 160.288L48.008 156.288L45.848 156.288L45.848 160.288ZM48.008 160.288C53.0417 160.288 60.274 159.25 66.231 153.54C72.1959 147.822 76.504 137.786 76.504 120.632L72.504 120.632C72.504 137.174 68.3521 145.966 63.463 150.652C58.566 155.346 52.5503 156.288 48.008 156.288L48.008 160.288ZM76.504 120.632L76.504 117.536L72.504 117.536L72.504 120.632L76.504 120.632ZM46.496 138.72C43.7934 138.72 40.8095 137.929 38.4665 135.303C36.0905 132.639 34.096 127.78 34.096 119.048L30.096 119.048C30.096 128.316 32.2055 134.293 35.4815 137.965C38.7905 141.675 43.0066 142.72 46.496 142.72L46.496 138.72ZM34.096 119.048C34.096 110.251 36.1408 105.4 38.5512 102.755C40.9342 100.141 43.9574 99.3761 46.64 99.3761L46.64 95.3761C43.2026 95.3761 38.9538 96.3754 35.5948 100.061C32.2632 103.716 30.096 109.701 30.096 119.048L34.096 119.048ZM46.64 99.3761L47.504 99.3761L47.504 95.3761L46.64 95.3761L46.64 99.3761ZM47.504 99.3761C50.2122 99.3761 53.0791 100.082 55.3187 102.623C57.6077 105.219 59.544 110.069 59.544 119.048L63.544 119.048C63.544 109.595 61.5203 103.609 58.3193 99.9775C55.0689 96.2902 50.9158 95.3761 47.504 95.3761L47.504 99.3761ZM59.544 119.048C59.544 127.873 57.6121 132.734 55.3112 135.374C53.0556 137.962 50.1767 138.72 47.504 138.72L47.504 142.72C50.9512 142.72 55.0924 141.714 58.3268 138.002C61.5159 134.342 63.544 128.367 63.544 119.048L59.544 119.048ZM47.504 138.72L46.496 138.72L46.496 142.72L47.504 142.72L47.504 138.72ZM20 211.342L18 211.342L18 212.597L19.1289 213.143L20 211.342ZM73.568 237.262L72.6969 239.063L75.568 240.452L75.568 237.262L73.568 237.262ZM73.568 219.839L75.568 219.839L75.568 218.568L74.4185 218.028L73.568 219.839ZM34.184 201.335L33.2883 199.546L29.6034 201.392L33.3335 203.145L34.184 201.335ZM73.568 181.606L74.4637 183.395L75.568 182.842L75.568 181.606L73.568 181.606ZM73.568 162.598L75.568 162.598L75.568 159.304L72.6451 160.824L73.568 162.598ZM20 190.462L19.0771 188.688L18 189.248L18 190.462L20 190.462ZM19.1289 213.143L72.6969 239.063L74.4391 235.462L20.8711 209.542L19.1289 213.143ZM75.568 237.262L75.568 219.839L71.568 219.838L71.568 237.262L75.568 237.262ZM74.4185 218.028L35.0345 199.524L33.3335 203.145L72.7175 221.649L74.4185 218.028ZM35.0797 203.123L74.4637 183.395L72.6723 179.818L33.2883 199.546L35.0797 203.123ZM75.568 181.606L75.568 162.598L71.568 162.598L71.568 181.606L75.568 181.606ZM72.6451 160.824L19.0771 188.688L20.9229 192.237L74.4909 164.373L72.6451 160.824ZM18 190.462L18 211.342L22 211.342L22 190.462L18 190.462ZM41.888 281.944L39.888 281.944L39.888 285.227L42.8053 283.721L41.888 281.944ZM41.888 261.64L42.7747 259.847L39.888 258.42L39.888 261.64L41.888 261.64ZM61.976 271.576L62.8933 273.353L66.4103 271.538L62.8627 269.783L61.976 271.576ZM20 293.176L19.0847 291.398L18 291.956L18 293.176L20 293.176ZM20 311.248L18 311.248L18 314.586L20.9434 313.012L20 311.248ZM73.568 282.592L74.5114 284.356L75.568 283.79L75.568 282.592L73.568 282.592ZM73.568 260.848L75.568 260.848L75.568 259.618L74.4701 259.063L73.568 260.848ZM20 233.776L20.9021 231.991L18 230.524L18 233.776L20 233.776ZM20 250.84L18 250.84L18 252.084L19.1161 252.634L20 250.84ZM29.792 255.664L31.792 255.664L31.792 254.42L30.6758 253.87L29.792 255.664ZM29.792 288.136L30.7073 289.914L31.792 289.356L31.792 288.136L29.792 288.136ZM43.888 281.944L43.888 261.64L39.888 261.64L39.888 281.944L43.888 281.944ZM41.0013 263.433L61.0893 273.369L62.8627 269.783L42.7747 259.847L41.0013 263.433ZM61.0587 269.799L40.9707 280.167L42.8053 283.721L62.8933 273.353L61.0587 269.799ZM18 293.176L18 311.248L22 311.248L22 293.176L18 293.176ZM20.9434 313.012L74.5114 284.356L72.6246 280.829L19.0566 309.485L20.9434 313.012ZM75.568 282.592L75.568 260.848L71.568 260.848L71.568 282.592L75.568 282.592ZM74.4701 259.063L20.9021 231.991L19.0979 235.561L72.6659 262.633L74.4701 259.063ZM18 233.776L18 250.84L22 250.84L22 233.776L18 233.776ZM19.1161 252.634L28.9081 257.458L30.6758 253.87L20.8838 249.046L19.1161 252.634ZM27.792 255.664L27.792 288.136L31.792 288.136L31.792 255.664L27.792 255.664ZM28.8767 286.358L19.0847 291.398L20.9153 294.954L30.7073 289.914L28.8767 286.358Z" fill="white"/>
<path d="M99.688 12.552C99.688 21.528 102.712 23.016 105.664 23.016L106 23.016C109.552 23.016 111.184 20.304 111.304 13.584L111.352 10.584C111.424 6.936 112.12 6.456 112.888 6.456C113.656 6.456 114.424 6.768 114.424 11.088L114.424 11.472C114.424 16.152 112.96 16.512 112.288 16.632L112.288 22.44L112.528 22.44C115.216 22.44 118.168 20.52 118.168 12.072L118.168 10.416C118.168 2.28 115.384 0.696 112.72 0.695999L112.504 0.695999C109.72 0.695999 107.464 2.736 107.272 9.408L107.2 12.48C107.08 16.608 106.432 17.16 105.4 17.16C104.44 17.16 103.504 16.632 103.504 11.928L103.504 11.592C103.504 6.984 105.256 6.36 106.336 6.288L106.336 0.455999L106.072 0.455999C103.72 0.455999 99.688 1.536 99.688 10.896L99.688 12.552ZM99.64 37.5679C99.64 45.5359 103.336 46.8079 106.312 46.8079L106.744 46.8079C109.672 46.8079 113.272 45.4399 113.272 37.5679L113.272 35.8639C113.272 28.3759 109.72 26.5999 106.744 26.5999L106.312 26.5999C103.336 26.5999 99.64 28.3999 99.64 35.8879L99.64 37.5679ZM103.12 36.7279C103.12 33.0799 104.944 32.0719 106.456 32.0719L106.576 32.0719C108.208 32.0719 109.84 33.0799 109.84 36.7279L109.84 36.7519C109.84 40.3519 108.184 41.3839 106.576 41.3839L106.456 41.3839C104.944 41.3839 103.12 40.3759 103.12 36.7279ZM112.912 68.7137L112.912 63.3617L106.816 63.3617C104.704 63.3617 103.312 61.8497 103.312 59.5217C103.312 57.2417 104.608 56.2097 106.528 56.2097L112.912 56.2097L112.912 50.8097L104.872 50.8097C102.448 50.8097 99.712 52.5137 99.712 56.9537L99.712 57.1457C99.712 60.8897 101.632 62.7617 102.232 63.4097L100 63.4097L100 68.7137L112.912 68.7137ZM100 82.9191L103.552 82.9191L103.552 81.4551C103.552 80.5191 103.984 80.3751 104.68 80.3751L109.36 80.3751L109.36 82.9191L112.912 82.9191L112.912 80.3751L116.68 80.3751L116.68 75.0951L112.912 75.0951L112.912 72.5751L109.36 72.5751L109.36 75.0951L103.672 75.0951C101.44 75.0951 100 75.9591 100 78.2871L100 82.9191ZM100 87.1342L100 92.4862L106.096 92.4862C108.208 92.4862 109.6 94.0462 109.6 96.4462C109.6 98.8222 108.376 99.9022 106.384 99.9022L100 99.9022L100 105.302L108.16 105.302C110.656 105.302 113.2 103.478 113.2 99.0142L113.2 98.8462C113.2 95.0062 111.328 93.0622 110.752 92.4862L117.856 92.4862L117.856 87.1342L100 87.1342ZM100 125.516L108.424 125.516L100 134.948L100 142.244L109.696 131.492L117.856 141.764L117.856 134.66L110.416 125.516L117.856 125.516L117.856 119.924L100 119.924L100 125.516ZM99.64 154.109C99.64 162.077 103.336 163.349 106.312 163.349L106.744 163.349C109.672 163.349 113.272 161.981 113.272 154.109L113.272 152.405C113.272 144.917 109.72 143.141 106.744 143.141L106.312 143.141C103.336 143.141 99.64 144.941 99.64 152.429L99.64 154.109ZM103.12 153.269C103.12 149.621 104.944 148.613 106.456 148.613L106.576 148.613C108.208 148.613 109.84 149.621 109.84 153.269L109.84 153.293C109.84 156.893 108.184 157.925 106.576 157.925L106.456 157.925C104.944 157.925 103.12 156.917 103.12 153.269ZM106.672 172.75C108.328 172.75 109.792 173.734 109.792 175.534L109.792 175.558C109.792 177.574 108.352 178.294 106.696 178.294L106.696 183.454L107.44 183.454C110.776 183.454 113.2 181.942 113.2 178.198L113.2 177.934C113.2 174.718 111.352 173.158 110.632 172.702L112.912 172.702L112.912 167.398L100 167.398L100 172.75L106.672 172.75ZM110.272 196.519C110.272 199.231 109.456 200.479 108.088 200.839L108.088 192.199C109.456 192.607 110.272 193.807 110.272 196.495L110.272 196.519ZM104.56 206.167L104.56 200.887C104.248 200.815 102.904 200.239 102.904 196.687L102.904 196.663C102.904 193.711 103.912 192.415 105.424 192.103L105.424 206.239L106.312 206.239C109.456 206.239 113.272 204.847 113.272 197.263L113.272 195.799C113.272 188.815 110.08 186.847 106.768 186.847L106.24 186.847C102.856 186.847 99.64 189.055 99.64 195.943L99.64 197.311C99.64 205.015 102.784 206.167 104.536 206.167L104.56 206.167ZM105.736 221.661C104.2 221.661 102.664 219.813 102.664 216.957C102.664 215.133 103.432 214.605 104.128 214.605L104.152 214.605C104.896 214.605 105.136 215.181 105.352 216.549L106.144 221.661L105.736 221.661ZM101.776 221.805C100.552 221.997 100 222.813 100 223.845L100 228.189L103.504 228.189L103.504 227.493C103.504 226.941 103.768 226.821 104.152 226.821L109.096 226.821C110.968 226.821 113.272 226.341 113.272 218.853L113.272 217.533C113.272 210.333 110.608 209.829 108.904 209.829L108.856 209.829L108.856 214.797C109.288 214.869 110.296 214.989 110.296 218.181L110.296 218.301C110.296 221.445 109.72 221.661 109.24 221.661C108.832 221.661 108.64 221.445 108.568 220.845L108.016 214.941C107.656 211.077 106.528 209.517 104.152 209.517L103.984 209.517C101.776 209.517 99.76 211.173 99.76 215.517L99.76 215.829C99.76 219.621 101.08 221.253 101.776 221.805Z" fill="#FF4656"/>
</svg>
