<svg width="297" height="1064" fill="none" xmlns="http://www.w3.org/2000/svg"><g opacity=".5"><path fill="#1F2326" d="M0 898h80v80H0zm0 91h80v8H0z"/><path d="M16 937.835V918l31.945 40H31.973L16 937.835zm42.648 6.777H43.005L64 918v19.835l-5.352 6.777z" fill="#FF4656"/></g><path opacity=".5" fill="#1F2326" d="M2 1056h232v8H2zM2 70h40v8H2z"/><path d="M183.424 104.511h-2v3.283l2.917-1.506-.917-1.777zm0-43.992l.887-1.793-2.887-1.428v3.22h2zm43.524 21.528l.917 1.777 3.517-1.815-3.547-1.755-.887 1.793zM136 128.847l-.915-1.779-1.085.559v1.22h2zm0 39.156h-2v3.338l2.943-1.575-.943-1.763zm116.064-62.088l.943 1.763 1.057-.565v-1.198h-2zm0-47.112h2v-1.23l-1.098-.555-.902 1.785zM136 .147l.902-1.785L134-3.105V.147h2zm0 36.972h-2v1.244l1.116.55.884-1.794zm21.216 10.452h2v-1.245l-1.116-.55-.884 1.795zm0 70.356l.915 1.778 1.085-.558v-1.22h-2zm28.208-13.416V60.519h-4v43.992h4zm-2.887-42.2l43.524 21.528 1.774-3.585-43.524-21.528-1.774 3.585zm43.494 17.958l-43.524 22.464 1.834 3.555 43.524-22.464-1.834-3.555zM134 128.847v39.156h4v-39.156h-4zm2.943 40.919l116.064-62.088-1.886-3.527-116.064 62.088 1.886 3.527zm117.121-63.851V58.803h-4v47.112h4zm-1.098-48.897L136.902-1.638l-1.804 3.57 116.064 58.656 1.804-3.57zM134 .147v36.972h4V.147h-4zm1.116 38.766l21.216 10.452 1.768-3.589-21.216-10.452-1.768 3.589zm20.1 8.658v70.356h4V47.571h-4zm1.085 68.577l-21.216 10.92 1.83 3.557 21.216-10.92-1.83-3.557zm-2.205 196.369l.773 1.844 2.975-1.247-2.44-2.11-1.308 1.513zM136 317.197l-.221-1.988-1.779.198v1.79h2zm0 21.84h-2v2h2v-2zm65.052 0v2h2v-2h-2zm0-81.744h2v-2h-2v2zm-21.996 0v-2h-2v2h2zm0 45.552v2h2v-2h-2zm30.888-3.276l-.666-1.886-1.334.471v1.415h2zm0 38.688h-2v2h2v-2zm.156 0v2h.04l.039-.001-.079-1.999zm-78.128-81.588c0 36.53 14.659 52.036 20.816 57.361l2.616-3.026c-5.387-4.659-19.432-19.105-19.432-54.335h-4zm21.351 54.004c-4.645 1.947-13.505 4.088-17.544 4.536l.442 3.976c4.385-.487 13.621-2.715 18.648-4.824l-1.546-3.688zM134 317.197v21.84h4v-21.84h-4zm2 23.84h65.052v-4H136v4zm67.052-2v-81.744h-4v81.744h4zm-2-83.744h-21.996v4h21.996v-4zm-23.996 2v45.552h4v-45.552h-4zm2 43.552h-.312v4h.312v-4zm-.312 0c.051 0-.18-.005-.725-.289-.503-.263-1.156-.704-1.91-1.376-1.505-1.341-3.332-3.531-5.1-6.818-3.533-6.567-6.801-17.456-6.801-34.445h-4c0 17.487 3.362 29.062 7.278 36.34 1.956 3.636 4.059 6.213 5.961 7.909.95.847 1.871 1.492 2.72 1.935.807.422 1.707.744 2.577.744v-4zm-14.536-42.928c0-15.669 3.935-26.118 9.45-32.616 5.499-6.478 12.723-9.22 19.75-9.22v-4c-8.105 0-16.481 3.186-22.799 10.631-6.302 7.425-10.401 18.895-10.401 35.205h4zm29.2-41.836h1.716v-4h-1.716v4zm1.716 0c7.674 0 14.875 2.076 20.204 8.118 5.375 6.094 9.152 16.564 9.152 34.03h4c0-17.946-3.867-29.55-10.153-36.676-6.332-7.18-14.81-9.472-23.203-9.472v4zm29.356 42.148c0 17.867-3.431 27.531-6.937 32.78-3.449 5.166-7.1 6.263-8.265 6.674l1.332 3.772c1.487-.525 6.104-2.002 10.26-8.224 4.099-6.139 7.61-16.677 7.61-35.002h-4zm-16.536 41.34v38.688h4v-38.688h-4zm2 40.688h.156v-4h-.156v4zm.235-.001c8.319-.33 19.907-3.513 29.374-15.085 9.428-11.526 16.539-31.118 16.539-63.822h-4c0 32.192-7.007 50.742-15.636 61.29-8.59 10.502-18.998 13.325-26.435 13.62l.158 3.997zm45.913-78.907v-6.708h-4v6.708h4zm0-6.708c0-33.716-8.788-53.968-20.821-65.777-12.021-11.798-26.956-14.847-38.587-14.847v4c10.989 0 24.758 2.88 35.786 13.702 11.016 10.811 19.622 29.87 19.622 62.922h4zm-59.408-80.624h-4.368v4h4.368v-4zm-4.368 0c-12.008 0-27.148 3.746-39.291 15.687-12.165 11.962-21.053 31.882-21.053 63.689h4c0-31.06 8.662-49.828 19.858-60.837 11.218-11.031 25.25-14.539 36.486-14.539v-4zm-60.344 79.376v3.276h4v-3.276h-4zm120.092 117.795h2v-2h-2v2zm-116.064 0v-2h-2v2h2zm0 123.864h-2v2h2v-2zm26.988 0v2h2v-2h-2zm0-87.984v-2h-2v2h2zm19.032 0h2v-2h-2v2zm0 84.396h-2v2h2v-2zm26.52 0v2h2v-2h-2zm0-84.396v-2h-2v2h2zm17.16 0h2v-2h-2v2zm0 86.424h-2v2h2v-2zm26.364 0v2h2v-2h-2zm0-124.304H136v4h116.064v-4zm-118.064 2v123.864h4V371.188h-4zm2 125.864h26.988v-4H136v4zm28.988-2v-87.984h-4v87.984h4zm-2-85.984h19.032v-4h-19.032v4zm17.032-2v84.396h4v-84.396h-4zm2 86.396h26.52v-4h-26.52v4zm28.52-2v-84.396h-4v84.396h4zm-2-82.396h17.16v-4h-17.16v4zm15.16-2v86.424h4v-86.424h-4zm2 88.424h26.364v-4H225.7v4zm28.364-2V371.188h-4v122.304h4zm-2 32.233h2v-2h-2v2zm-116.064 0v-2h-2v2h2zm0 35.88h-2v2h2v-2zm76.908 0l1.431 1.397 3.316-3.397h-4.747v2zM136 640.385l-1.431-1.397-.569.583v.814h2zm0 35.88h-2v2h2v-2zm116.064 0v2h2v-2h-2zm0-35.88h2v-2h-2v2zm-73.008 0l-1.425-1.403-3.353 3.403h4.778v-2zm73.008-74.1l1.425 1.404.575-.584v-.82h-2zm0-42.56H136v4h116.064v-4zm-118.064 2v35.88h4v-35.88h-4zm2 37.88h76.908v-4H136v4zm75.477-3.397l-76.908 78.78 2.862 2.794 76.908-78.78-2.862-2.794zM134 640.385v35.88h4v-35.88h-4zm2 37.88h116.064v-4H136v4zm118.064-2v-35.88h-4v35.88h4zm-2-37.88h-73.008v4h73.008v-4zm-71.583 3.404l73.008-74.1-2.85-2.807-73.008 74.1 2.85 2.807zm73.583-75.504v-40.56h-4v40.56h4zM136 755.061v-2h-2v2h2zm0 36.66h-2v2h2v-2zm88.608 0h2v-2h-2v2zm0 50.076h-2v2h2v-2zm27.456 0v2h2v-2h-2zm0-136.656h2v-2h-2v2zm-27.456 0v-2h-2v2h2zm0 49.92v2h2v-2h-2zm-90.608 0v36.66h4v-36.66h-4zm2 38.66h88.608v-4H136v4zm86.608-2v50.076h4v-50.076h-4zm2 52.076h27.456v-4h-27.456v4zm29.456-2V705.141h-4v136.656h4zm-2-138.656h-27.456v4h27.456v-4zm-29.456 2v49.92h4v-49.92h-4zm2 47.92H136v4h88.608v-4zm-15.132 196.487l2 .036v-.004l-2-.032zm.312-19.5l-2-.04v.008l2 .032zm6.084 39.312l-.352-1.969-1.648.294v1.675h2zm0 37.75h-2v2h2v-2zm-32.604-84.706l-1.999-.058v.011l1.999.047zm-.468 19.968l1.999.058v-.011l-1.999-.047zm-5.616-40.248l.133 1.996 1.867-.125v-1.871h-2zm0-37.908h2v-2h-2v2zm-45.212 78.624c0 29.313 4.921 46.855 12.629 57.09 7.825 10.39 18.256 12.93 28.215 12.93v-4c-9.229 0-18.22-2.31-25.02-11.336-6.918-9.187-11.824-25.653-11.824-54.684h-4zm40.844 70.02H175v-4h-2.184v4zm2.184 0c6.027 0 11.368-1.16 15.98-3.69 4.622-2.53 8.387-6.39 11.36-11.596 5.897-10.324 8.744-26.078 9.136-47.99l-4-.072c-.388 21.768-3.235 36.668-8.609 46.078-2.662 4.66-5.927 7.94-9.812 10.08-3.895 2.13-8.538 3.19-14.055 3.19v4zm36.476-63.28l.312-19.5-4-.064-.312 19.5 4 .064zm.312-19.493c.233-11.825 1.486-18.152 3.095-21.475.779-1.607 1.586-2.395 2.299-2.812.719-.421 1.548-.584 2.59-.584v-4c-1.454 0-3.063.227-4.61 1.132-1.554.909-2.843 2.383-3.879 4.52-2.017 4.164-3.26 11.254-3.495 23.14l4 .079zm7.984-24.871c1.133 0 1.984.122 2.719.517.702.378 1.531 1.133 2.332 2.852 1.668 3.579 2.933 10.707 2.933 24.739h4c0-14.048-1.231-21.975-3.307-26.429-1.071-2.298-2.426-3.805-4.064-4.685-1.605-.863-3.25-.994-4.613-.994v4zm7.984 28.108v2.496h4v-2.496h-4zm0 2.496c0 15.071-2.37 22.792-4.979 26.792-1.283 1.967-2.632 3.049-3.835 3.692-1.222.652-2.384.902-3.422 1.087l.704 3.938c1.146-.205 2.812-.541 4.602-1.497 1.81-.966 3.659-2.516 5.301-5.035 3.241-4.969 5.629-13.628 5.629-28.977h-4zm-13.884 33.54v37.75h4v-37.75h-4zm2 39.75h1.56v-4h-1.56v4zm1.56 0c9.278 0 19.107-3.35 26.521-13.956 7.323-10.473 12.139-27.807 12.139-55.434h-4c0 27.285-4.778 43.647-11.417 53.142-6.548 9.368-15.049 12.248-23.243 12.248v4zm38.66-69.39v-10.764h-4v10.764h4zm0-10.764c0-26.597-4.537-42.905-11.596-52.599-7.166-9.841-16.714-12.581-25.816-12.581v4c8.214 0 16.372 2.408 22.583 10.936 6.318 8.675 10.829 23.957 10.829 50.244h4zm-37.412-65.18h-1.404v4h1.404v-4zm-1.404 0c-9.617 0-18.459 3.569-24.963 12.908-6.409 9.203-10.416 23.82-11.044 45.662l3.998.115c.62-21.525 4.569-35.222 10.328-43.491 5.664-8.133 13.202-11.194 21.681-11.194v-4zm-36.007 58.581l-.468 19.968 3.998.094.468-19.968-3.998-.094zm-.468 19.957c-.39 13.426-1.645 20.647-3.44 24.482-.864 1.847-1.791 2.768-2.689 3.271-.926.518-2.055.725-3.572.725v4c1.837 0 3.75-.241 5.525-1.235 1.802-1.008 3.235-2.661 4.359-5.065 2.184-4.667 3.425-12.656 3.815-26.062l-3.998-.116zm-9.701 28.478c-1.385 0-2.556-.193-3.591-.765-1.017-.561-2.106-1.6-3.116-3.655-2.082-4.236-3.617-12.331-3.617-27.588h-4c0 15.319 1.507 24.227 4.027 29.352 1.291 2.625 2.893 4.355 4.772 5.393 1.86 1.027 3.79 1.263 5.525 1.263v-4zm-10.324-32.008V936.6h-4v2.184h4zm0-2.184c0-14.78 2.82-22.76 6.154-27.071 3.257-4.212 7.225-5.199 10.387-5.409l-.266-3.992c-3.858.258-9.094 1.533-13.286 6.954-4.115 5.322-6.989 14.346-6.989 29.518h4zm18.408-34.476v-37.908h-4v37.908h4zm-2-39.908h-1.716v4h1.716v-4zm-1.716 0c-7.949 0-18.977 1.834-27.965 11.774-8.937 9.884-15.531 27.432-15.531 58.086h4c0-30.187 6.51-46.568 14.498-55.404 7.939-8.78 17.659-10.456 24.998-10.456v-4zm-43.496 69.86v10.764h4v-10.764h-4z" fill="#fff"/></svg>