<svg width="125" height="312" fill="none" xmlns="http://www.w3.org/2000/svg"><path d="M53.912 40.752l2 .036v-.004l-2-.032zm.144-9l-2-.04v.008l2 .032zm2.808 18.144l-.352-1.969-1.648.294v1.675h2zm0 17.424h-2v2h2v-2zM41.816 28.224l-2-.058v.011l2 .047zM41.6 37.44l2 .058v-.011l-2-.047zm-2.592-18.576l.133 1.996 1.867-.125v-1.871h-2zm0-17.496h2v-2h-2v2zM17.064 37.656c0 13.605 2.276 21.99 6.045 26.997 3.888 5.162 9.09 6.395 13.883 6.395v-4c-4.063 0-7.825-1-10.687-4.801-2.98-3.958-5.241-11.268-5.241-24.591h-4zm19.928 33.392H38v-4h-1.008v4zm1.008 0c2.92 0 5.572-.558 7.894-1.833 2.33-1.28 4.203-3.213 5.66-5.763 2.862-5.011 4.176-12.512 4.358-22.664l-4-.072c-.178 10.008-1.492 16.655-3.832 20.752-1.144 2.004-2.516 3.365-4.111 4.24-1.605.881-3.56 1.34-5.969 1.34v4zm17.912-30.264l.144-9-4-.064-.144 9 4 .064zm.144-8.992c.107-5.442.688-8.157 1.321-9.464.29-.6.533-.778.635-.838.11-.064.282-.122.652-.122v-4c-.782 0-1.735.122-2.671.67-.945.552-1.67 1.417-2.216 2.546-1.04 2.149-1.612 5.626-1.72 11.128l3.999.08zm2.608-10.424c.46 0 .64.054.745.11.072.04.313.185.61.823.66 1.417 1.253 4.491 1.253 10.963h4c0-6.488-.56-10.362-1.627-12.653-.567-1.216-1.334-2.114-2.342-2.656-.975-.524-1.948-.587-2.639-.587v4zm2.608 11.896v1.152h4v-1.152h-4zm0 1.152c0 6.881-1.09 10.192-2.123 11.778-.495.758-.983 1.132-1.375 1.341-.411.22-.812.312-1.262.392l.704 3.938c.558-.1 1.462-.278 2.442-.801.998-.533 1.986-1.374 2.841-2.685 1.666-2.555 2.773-6.804 2.773-13.963h-4zm-6.408 15.48V67.32h4V49.896h-4zm2 19.424h.72v-4h-.72v4zm.72 0c4.574 0 9.468-1.674 13.123-6.902 3.564-5.097 5.797-13.358 5.797-26.202h-4c0 12.5-2.195 19.791-5.075 23.91-2.789 3.988-6.355 5.194-9.845 5.194v4zm18.92-33.104v-4.968h-4v4.968h4zm0-4.968c0-12.359-2.1-20.162-5.558-24.91C67.38 1.442 62.6.088 58.16.088v4c3.552 0 6.943 1.022 9.552 4.604 2.717 3.73 4.792 10.507 4.792 22.556h4zM58.16.088h-.648v4h.648v-4zm-.648 0c-4.745 0-9.177 1.784-12.405 6.419-3.133 4.499-4.998 11.493-5.29 21.66l3.998.114c.284-9.85 2.091-15.923 4.574-19.488 2.388-3.429 5.516-4.705 9.123-4.705v-4zm-17.696 28.09l-.216 9.215 4 .094.215-9.216-3.998-.094zm-.215 9.204c-.18 6.202-.763 9.328-1.486 10.874-.33.703-.62.93-.792 1.026-.199.112-.51.198-1.123.198v4c.934 0 2.028-.12 3.076-.707 1.075-.601 1.872-1.562 2.461-2.821 1.113-2.378 1.682-6.272 1.862-12.454l-3.998-.116zM36.2 49.48c-.545 0-.88-.077-1.137-.219-.237-.13-.601-.424-.992-1.22-.843-1.714-1.559-5.232-1.559-12.257h-4c0 7.087.688 11.418 1.97 14.022.67 1.365 1.548 2.35 2.648 2.957 1.08.596 2.175.717 3.07.717v-4zm-3.688-13.696v-1.008h-4v1.008h4zm0-1.008c0-6.716 1.287-10.118 2.615-11.836 1.252-1.618 2.742-1.996 4.014-2.08l-.266-3.992c-1.968.132-4.726.798-6.912 3.626-2.11 2.728-3.451 7.174-3.451 14.282h4zm8.496-15.912V1.368h-4v17.496h4zm-2-19.496h-.792v4h.792v-4zm-.792 0c-3.833 0-9.275.889-13.706 5.789-4.38 4.844-7.446 13.258-7.446 27.531h4c0-13.807 2.982-21.053 6.413-24.849 3.382-3.74 7.516-4.471 10.739-4.471v-4zm-21.152 33.32v4.968h4v-4.968h-4zm59.44 84.848c0-17.258-4.306-27.315-10.274-33.026-5.962-5.704-13.198-6.702-18.222-6.702v4c4.552 0 10.564.91 15.456 5.592 4.886 4.675 9.04 13.482 9.04 30.136h4zM48.008 77.808h-2.16v4h2.16v-4zm-2.16 0c-4.954 0-12.252.999-18.3 6.69-6.063 5.707-10.484 15.766-10.484 33.038h4c0-16.64 4.255-25.445 9.226-30.125 4.986-4.694 11.08-5.603 15.558-5.603v-4zm-28.784 39.728v3.096h4v-3.096h-4zm0 3.096c0 17.203 4.423 27.242 10.484 32.947 6.045 5.69 13.341 6.709 18.3 6.709v-4c-4.473 0-10.57-.925-15.558-5.621-4.973-4.681-9.226-13.47-9.226-30.035h-4zm28.784 39.656h2.16v-4h-2.16v4zm2.16 0c5.034 0 12.266-1.038 18.223-6.748 5.965-5.718 10.273-15.754 10.273-32.908h-4c0 16.542-4.152 25.334-9.041 30.02-4.897 4.694-10.913 5.636-15.455 5.636v4zm28.496-39.656v-3.096h-4v3.096h4zM46.496 138.72c-2.703 0-5.687-.791-8.03-3.417-2.376-2.664-4.37-7.523-4.37-16.255h-4c0 9.268 2.11 15.245 5.385 18.917 3.31 3.71 7.526 4.755 11.015 4.755v-4zm-12.4-19.672c0-8.797 2.045-13.648 4.455-16.293 2.383-2.614 5.406-3.379 8.089-3.379v-4c-3.437 0-7.686 1-11.045 4.685-3.332 3.655-5.499 9.64-5.499 18.987h4zM46.64 99.376h.864v-4h-.864v4zm.864 0c2.708 0 5.575.706 7.815 3.247 2.289 2.596 4.225 7.446 4.225 16.425h4c0-9.453-2.024-15.439-5.225-19.07-3.25-3.688-7.403-4.602-10.815-4.602v4zm12.04 19.672c0 8.825-1.932 13.686-4.233 16.326-2.255 2.588-5.134 3.346-7.807 3.346v4c3.447 0 7.588-1.006 10.823-4.718 3.189-3.66 5.217-9.635 5.217-18.954h-4zm-12.04 19.672h-1.008v4h1.008v-4zM20 211.342h-2v1.255l1.129.546.871-1.801zm53.568 25.92l-.871 1.801 2.871 1.389v-3.19h-2zm0-17.423h2v-1.271l-1.15-.54-.85 1.811zm-39.384-18.504l-.896-1.789-3.685 1.846 3.73 1.753.851-1.81zm39.384-19.729l.896 1.789 1.104-.553v-1.236h-2zm0-19.008h2v-3.294l-2.923 1.52.923 1.774zM20 190.462l-.923-1.774-1.077.56v1.214h2zm-.871 22.681l53.568 25.92 1.742-3.601-53.568-25.92-1.742 3.601zm56.439 24.119v-17.423l-4-.001v17.424h4zm-1.15-19.234l-39.384-18.504-1.7 3.621 39.383 18.504 1.701-3.621zM35.08 203.123l39.384-19.728-1.792-3.577-39.384 19.728 1.792 3.577zm40.488-21.517v-19.008h-4v19.008h4zm-2.923-20.782l-53.568 27.864 1.846 3.549 53.568-27.864-1.846-3.549zM18 190.462v20.88h4v-20.88h-4zm23.888 91.482h-2v3.283l2.917-1.506-.917-1.777zm0-20.304l.887-1.793-2.887-1.427v3.22h2zm20.088 9.936l.917 1.777 3.517-1.815-3.547-1.755-.887 1.793zM20 293.176l-.915-1.778-1.085.558v1.22h2zm0 18.072h-2v3.338l2.943-1.574-.943-1.764zm53.568-28.656l.943 1.764 1.057-.566v-1.198h-2zm0-21.744h2v-1.23l-1.098-.555-.902 1.785zM20 233.776l.902-1.785L18 230.524v3.252h2zm0 17.064h-2v1.244l1.116.55.884-1.794zm9.792 4.824h2v-1.244l-1.116-.55-.884 1.794zm0 32.472l.915 1.778 1.085-.558v-1.22h-2zm14.096-6.192V261.64h-4v20.304h4zm-2.887-18.511l20.088 9.936 1.774-3.586-20.088-9.936L41 263.433zm20.058 6.366L40.97 280.167l1.834 3.554 20.088-10.368-1.834-3.554zM18 293.176v18.072h4v-18.072h-4zm2.943 19.836l53.568-28.656-1.886-3.527-53.568 28.656 1.886 3.527zm54.625-30.42v-21.744h-4v21.744h4zm-1.098-23.529l-53.568-27.072-1.804 3.57 53.568 27.072 1.804-3.57zM18 233.776v17.064h4v-17.064h-4zm1.116 18.858l9.792 4.824 1.768-3.588-9.792-4.824-1.768 3.588zm8.676 3.03v32.472h4v-32.472h-4zm1.085 30.694l-9.792 5.04 1.83 3.556 9.792-5.04-1.83-3.556z" fill="#fff"/><path d="M99.688 12.552c0 8.976 3.024 10.464 5.976 10.464H106c3.552 0 5.184-2.712 5.304-9.432l.048-3c.072-3.648.768-4.128 1.536-4.128s1.536.312 1.536 4.632v.384c0 4.68-1.464 5.04-2.136 5.16v5.808h.24c2.688 0 5.64-1.92 5.64-10.368v-1.656c0-8.136-2.784-9.72-5.448-9.72h-.216c-2.784 0-5.04 2.04-5.232 8.712l-.072 3.072c-.12 4.128-.768 4.68-1.8 4.68-.96 0-1.896-.528-1.896-5.232v-.336c0-4.608 1.752-5.232 2.832-5.304V.456h-.264c-2.352 0-6.384 1.08-6.384 10.44v1.656zm-.048 25.016c0 7.968 3.696 9.24 6.672 9.24h.432c2.928 0 6.528-1.368 6.528-9.24v-1.704c0-7.488-3.552-9.264-6.528-9.264h-.432c-2.976 0-6.672 1.8-6.672 9.288v1.68zm3.48-.84c0-3.648 1.824-4.656 3.336-4.656h.12c1.632 0 3.264 1.008 3.264 4.656v.024c0 3.6-1.656 4.632-3.264 4.632h-.12c-1.512 0-3.336-1.008-3.336-4.656zm9.792 31.986v-5.352h-6.096c-2.112 0-3.504-1.512-3.504-3.84 0-2.28 1.296-3.312 3.216-3.312h6.384v-5.4h-8.04c-2.424 0-5.16 1.704-5.16 6.144v.192c0 3.744 1.92 5.616 2.52 6.264H100v5.304h12.912zM100 82.919h3.552v-1.464c0-.936.432-1.08 1.128-1.08h4.68v2.544h3.552v-2.544h3.768v-5.28h-3.768v-2.52h-3.552v2.52h-5.688c-2.232 0-3.672.864-3.672 3.192v4.632zm0 4.215v5.352h6.096c2.112 0 3.504 1.56 3.504 3.96 0 2.376-1.224 3.456-3.216 3.456H100v5.4h8.16c2.496 0 5.04-1.824 5.04-6.288v-.168c0-3.84-1.872-5.784-2.448-6.36h7.104v-5.352H100zm0 38.382h8.424L100 134.948v7.296l9.696-10.752 8.16 10.272v-7.104l-7.44-9.144h7.44v-5.592H100v5.592zm-.36 28.593c0 7.968 3.696 9.24 6.672 9.24h.432c2.928 0 6.528-1.368 6.528-9.24v-1.704c0-7.488-3.552-9.264-6.528-9.264h-.432c-2.976 0-6.672 1.8-6.672 9.288v1.68zm3.48-.84c0-3.648 1.824-4.656 3.336-4.656h.12c1.632 0 3.264 1.008 3.264 4.656v.024c0 3.6-1.656 4.632-3.264 4.632h-.12c-1.512 0-3.336-1.008-3.336-4.656zm3.552 19.481c1.656 0 3.12.984 3.12 2.784v.024c0 2.016-1.44 2.736-3.096 2.736v5.16h.744c3.336 0 5.76-1.512 5.76-5.256v-.264c0-3.216-1.848-4.776-2.568-5.232h2.28v-5.304H100v5.352h6.672zm3.6 23.769c0 2.712-.816 3.96-2.184 4.32v-8.64c1.368.408 2.184 1.608 2.184 4.296v.024zm-5.712 9.648v-5.28c-.312-.072-1.656-.648-1.656-4.2v-.024c0-2.952 1.008-4.248 2.52-4.56v14.136h.888c3.144 0 6.96-1.392 6.96-8.976v-1.464c0-6.984-3.192-8.952-6.504-8.952h-.528c-3.384 0-6.6 2.208-6.6 9.096v1.368c0 7.704 3.144 8.856 4.896 8.856h.024zm1.176 15.494c-1.536 0-3.072-1.848-3.072-4.704 0-1.824.768-2.352 1.464-2.352h.024c.744 0 .984.576 1.2 1.944l.792 5.112h-.408zm-3.96.144c-1.224.192-1.776 1.008-1.776 2.04v4.344h3.504v-.696c0-.552.264-.672.648-.672h4.944c1.872 0 4.176-.48 4.176-7.968v-1.32c0-7.2-2.664-7.704-4.368-7.704h-.048v4.968c.432.072 1.44.192 1.44 3.384v.12c0 3.144-.576 3.36-1.056 3.36-.408 0-.6-.216-.672-.816l-.552-5.904c-.36-3.864-1.488-5.424-3.864-5.424h-.168c-2.208 0-4.224 1.656-4.224 6v.312c0 3.792 1.32 5.424 2.016 5.976z" fill="#FF4656"/></svg>