<svg width="125" height="284" fill="none" xmlns="http://www.w3.org/2000/svg"><path d="M73.568 61.056v2h2v-2h-2zm0-16.848h2v-2h-2v2zM42.824 17.496l.181 1.992 1.819-.166v-1.826h-2zm0-16.992h2v-2h-2v2zM17.208 32.976c0 11.89 3.945 19.534 9.652 24.154 5.627 4.555 12.672 5.926 18.484 5.926v-4c-5.276 0-11.3-1.257-15.968-5.036-4.589-3.714-8.168-10.11-8.168-21.044h-4zm28.136 30.08h28.224v-4H45.344v4zm30.224-2V44.208h-4v16.848h4zm-2-18.848H45.776v4h27.792v-4zm-27.792 0c-3.765 0-6.518-.933-8.32-2.594-1.772-1.633-2.928-4.253-2.928-8.294h-4c0 4.815 1.4 8.64 4.218 11.236 2.788 2.57 6.659 3.652 11.03 3.652v-4zM34.528 31.32v-.864h-4v.864h4zm0-.864c0-5.285 1.773-7.841 3.482-9.165 1.814-1.405 3.913-1.705 4.995-1.803l-.362-3.984c-1.294.118-4.343.502-7.083 2.625-2.845 2.204-5.032 6.02-5.032 12.327h4zm10.296-12.96V.504h-4v16.992h4zm-2-18.992h-.432v4h.432v-4zm-.432 0c-5.45 0-11.79 1.642-16.78 6.403-5.018 4.789-8.404 12.479-8.404 24.037h4c0-10.762 3.13-17.292 7.166-21.143 4.065-3.88 9.317-5.297 14.018-5.297v-4zm-25.184 30.44v4.032h4v-4.032h-4zm56.36 46.907h2v-2h-2v2zM20 75.85v-2h-2v2h2zm0 57.168h-2v2h2v-2zm12.456 0v2h2v-2h-2zm0-40.608v-2h-2v2h2zm8.784 0h2v-2h-2v2zm0 38.952h-2v2h2v-2zm12.24 0v2h2v-2h-2zm0-38.952v-2h-2v2h2zm7.92 0h2v-2h-2v2zm0 39.888h-2v2h2v-2zm12.168 0v2h2v-2h-2zm0-58.448H20v4h53.568v-4zM18 75.85v57.168h4V75.851h-4zm2 59.168h12.456v-4H20v4zm14.456-2V92.411h-4v40.608h4zm-2-38.608h8.784v-4h-8.784v4zm6.784-2v38.952h4V92.411h-4zm2 40.952h12.24v-4H41.24v4zm14.24-2V92.411h-4v38.952h4zm-2-36.952h7.92v-4h-7.92v4zm5.92-2v39.888h4V92.411h-4zm2 41.888h12.168v-4H61.4v4zm14.168-2V75.851h-4v56.448h4zM20 167.425v-2h-2v2h2zm0 16.92h-2v2h2v-2zm40.896 0h2v-2h-2v2zm0 23.112h-2v2h2v-2zm12.672 0v2h2v-2h-2zm0-63.072h2v-2h-2v2zm-12.672 0v-2h-2v2h2zm0 23.04v2h2v-2h-2zm-42.896 0v16.92h4v-16.92h-4zm2 18.92h40.896v-4H20v4zm38.896-2v23.112h4v-23.112h-4zm2 25.112h12.672v-4H60.896v4zm14.672-2v-63.072h-4v63.072h4zm-2-65.072H60.896v4h12.672v-4zm-14.672 2v23.04h4v-23.04h-4zm2 21.04H20v4h40.896v-4zM20 241.703v-2h-2v2h2zm0 16.92h-2v2h2v-2zm40.896 0h2v-2h-2v2zm0 23.112h-2v2h2v-2zm12.672 0v2h2v-2h-2zm0-63.072h2v-2h-2v2zm-12.672 0v-2h-2v2h2zm0 23.04v2h2v-2h-2zm-42.896 0v16.92h4v-16.92h-4zm2 18.92h40.896v-4H20v4zm38.896-2v23.112h4v-23.112h-4zm2 25.112h12.672v-4H60.896v4zm14.672-2v-63.072h-4v63.072h4zm-2-65.072H60.896v4h12.672v-4zm-14.672 2v23.04h4v-23.04h-4zm2 21.04H20v4h40.896v-4z" fill="#fff"/><path d="M99.688 12.552c0 8.976 3.024 10.464 5.976 10.464H106c3.552 0 5.184-2.712 5.304-9.432l.048-3c.072-3.648.768-4.128 1.536-4.128s1.536.312 1.536 4.632v.384c0 4.68-1.464 5.04-2.136 5.16v5.808h.24c2.688 0 5.64-1.92 5.64-10.368v-1.656c0-8.136-2.784-9.72-5.448-9.72h-.216c-2.784 0-5.04 2.04-5.232 8.712l-.072 3.072c-.12 4.128-.768 4.68-1.8 4.68-.96 0-1.896-.528-1.896-5.232v-.336c0-4.608 1.752-5.232 2.832-5.304V.456h-.264c-2.352 0-6.384 1.08-6.384 10.44v1.656zm-.048 25.016c0 7.968 3.696 9.24 6.672 9.24h.432c2.928 0 6.528-1.368 6.528-9.24v-1.704c0-7.488-3.552-9.264-6.528-9.264h-.432c-2.976 0-6.672 1.8-6.672 9.288v1.68zm3.48-.84c0-3.648 1.824-4.656 3.336-4.656h.12c1.632 0 3.264 1.008 3.264 4.656v.024c0 3.6-1.656 4.632-3.264 4.632h-.12c-1.512 0-3.336-1.008-3.336-4.656zm9.792 31.986v-5.352h-6.096c-2.112 0-3.504-1.512-3.504-3.84 0-2.28 1.296-3.312 3.216-3.312h6.384v-5.4h-8.04c-2.424 0-5.16 1.704-5.16 6.144v.192c0 3.744 1.92 5.616 2.52 6.264H100v5.304h12.912zM100 82.919h3.552v-1.464c0-.936.432-1.08 1.128-1.08h4.68v2.544h3.552v-2.544h3.768v-5.28h-3.768v-2.52h-3.552v2.52h-5.688c-2.232 0-3.672.864-3.672 3.192v4.632zm0 4.215v5.352h6.096c2.112 0 3.504 1.56 3.504 3.96 0 2.376-1.224 3.456-3.216 3.456H100v5.4h8.16c2.496 0 5.04-1.824 5.04-6.288v-.168c0-3.84-1.872-5.784-2.448-6.36h7.104v-5.352H100zm0 38.382h8.424L100 134.948v7.296l9.696-10.752 8.16 10.272v-7.104l-7.44-9.144h7.44v-5.592H100v5.592zm-.36 28.593c0 7.968 3.696 9.24 6.672 9.24h.432c2.928 0 6.528-1.368 6.528-9.24v-1.704c0-7.488-3.552-9.264-6.528-9.264h-.432c-2.976 0-6.672 1.8-6.672 9.288v1.68zm3.48-.84c0-3.648 1.824-4.656 3.336-4.656h.12c1.632 0 3.264 1.008 3.264 4.656v.024c0 3.6-1.656 4.632-3.264 4.632h-.12c-1.512 0-3.336-1.008-3.336-4.656zm3.552 19.481c1.656 0 3.12.984 3.12 2.784v.024c0 2.016-1.44 2.736-3.096 2.736v5.16h.744c3.336 0 5.76-1.512 5.76-5.256v-.264c0-3.216-1.848-4.776-2.568-5.232h2.28v-5.304H100v5.352h6.672zm3.6 23.769c0 2.712-.816 3.96-2.184 4.32v-8.64c1.368.408 2.184 1.608 2.184 4.296v.024zm-5.712 9.648v-5.28c-.312-.072-1.656-.648-1.656-4.2v-.024c0-2.952 1.008-4.248 2.52-4.56v14.136h.888c3.144 0 6.96-1.392 6.96-8.976v-1.464c0-6.984-3.192-8.952-6.504-8.952h-.528c-3.384 0-6.6 2.208-6.6 9.096v1.368c0 7.704 3.144 8.856 4.896 8.856h.024zm1.176 15.494c-1.536 0-3.072-1.848-3.072-4.704 0-1.824.768-2.352 1.464-2.352h.024c.744 0 .984.576 1.2 1.944l.792 5.112h-.408zm-3.96.144c-1.224.192-1.776 1.008-1.776 2.04v4.344h3.504v-.696c0-.552.264-.672.648-.672h4.944c1.872 0 4.176-.48 4.176-7.968v-1.32c0-7.2-2.664-7.704-4.368-7.704h-.048v4.968c.432.072 1.44.192 1.44 3.384v.12c0 3.144-.576 3.36-1.056 3.36-.408 0-.6-.216-.672-.816l-.552-5.904c-.36-3.864-1.488-5.424-3.864-5.424h-.168c-2.208 0-4.224 1.656-4.224 6v.312c0 3.792 1.32 5.424 2.016 5.976z" fill="#FF4656"/></svg>