<svg width="125" height="515" fill="none" xmlns="http://www.w3.org/2000/svg"><path d="M73.568 4.104h2v-2h-2v2zM20 4.104v-2h-2v2h2zm0 16.776h-2v2h2v-2zm17.856 0h2v-2h-2v2zm23.544 0h2v-2h-2v2zm-11.52 0v-2h-2v2h2zm-14.024 23.4c0 9.806 2.039 16.592 5.654 20.95 3.673 4.43 8.704 6.034 13.914 6.034v-4c-4.366 0-8.119-1.311-10.836-4.587-2.775-3.345-4.732-9.05-4.732-18.397h-4zm19.568 26.984h.72v-4h-.72v4zm.72 0c5.297 0 10.31-1.557 13.933-5.99 3.552-4.35 5.491-11.14 5.491-20.994h-4c0 9.442-1.877 15.143-4.589 18.463-2.642 3.234-6.34 4.521-10.835 4.521v4zM75.568 44.28V4.104h-4V44.28h4zm-2-42.176H20v4h53.568v-4zM18 4.104V20.88h4V4.104h-4zm2 18.776h17.856v-4H20v4zm15.856-2v23.4h4v-23.4h-4zm23.544 0v23.112h4V20.88h-4zm0 23.112c0 2.51-.48 3.939-1.06 4.704-.5.658-1.26 1.072-2.628 1.072v4c2.305 0 4.387-.774 5.814-2.654 1.345-1.772 1.874-4.233 1.874-7.122h-4zm-3.688 5.776h-.216v4h.216v-4zm-.216 0c-1.327 0-2.075-.422-2.573-1.1-.582-.793-1.043-2.237-1.043-4.676h-4c0 2.817.51 5.261 1.819 7.043 1.392 1.895 3.452 2.733 5.797 2.733v-4zm-3.616-5.776V20.88h-4v23.112h4zm-2-21.112H61.4v-4H49.88v4zM20 82.038v-2h-2v2h2zm0 16.776h-2v2h2v-2zm21.096 0h2v-2h-2v2zm0 36v2h2v-2h-2zm-21.096 0v-2h-2v2h2zm0 16.776h-2v2h2v-2zm53.568 0v2h2v-2h-2zm0-16.776h2v-2h-2v2zm-19.512 0h-2v2h2v-2zm0-36v-2h-2v2h2zm19.512 0v2h2v-2h-2zm0-16.776h2v-2h-2v2zm-55.568 0v16.776h4V82.038h-4zm2 18.776h21.096v-4H20v4zm19.096-2v36h4v-36h-4zm2 34H20v4h21.096v-4zm-23.096 2v16.776h4v-16.776h-4zm2 18.776h53.568v-4H20v4zm55.568-2v-16.776h-4v16.776h4zm-2-18.776H54.056v4h19.512v-4zm-17.512 2v-36h-4v36h4zm-2-34h19.512v-4H54.056v4zm21.512-2V82.038h-4v16.776h4zm-2-18.776H20v4h53.568v-4zm2.936 122.534c0-17.258-4.306-27.315-10.274-33.026-5.962-5.704-13.198-6.702-18.222-6.702v4c4.552 0 10.564.91 15.456 5.592 4.886 4.675 9.04 13.482 9.04 30.136h4zm-28.496-39.728h-2.16v4h2.16v-4zm-2.16 0c-4.954 0-12.252.998-18.3 6.691-6.063 5.706-10.484 15.765-10.484 33.037h4c0-16.64 4.255-25.445 9.226-30.125 4.986-4.694 11.08-5.603 15.558-5.603v-4zm-28.784 39.728v3.096h4v-3.096h-4zm0 3.096c0 17.203 4.423 27.242 10.484 32.947 6.045 5.69 13.341 6.709 18.3 6.709v-4c-4.473 0-10.57-.925-15.558-5.621-4.973-4.681-9.226-13.47-9.226-30.035h-4zm28.784 39.656h2.16v-4h-2.16v4zm2.16 0c5.034 0 12.266-1.038 18.223-6.748 5.965-5.718 10.273-15.754 10.273-32.908h-4c0 16.542-4.152 25.334-9.041 30.02-4.897 4.694-10.913 5.636-15.455 5.636v4zm28.496-39.656v-3.096h-4v3.096h4zm-30.008 18.088c-2.703 0-5.687-.791-8.03-3.417-2.376-2.664-4.37-7.523-4.37-16.255h-4c0 9.268 2.11 15.245 5.385 18.917 3.31 3.71 7.526 4.755 11.015 4.755v-4zm-12.4-19.672c0-8.797 2.045-13.648 4.455-16.293 2.383-2.614 5.406-3.379 8.089-3.379v-4c-3.437 0-7.686.999-11.045 4.685-3.332 3.655-5.499 9.64-5.499 18.987h4zm12.544-19.672h.864v-4h-.864v4zm.864 0c2.708 0 5.575.706 7.815 3.247 2.289 2.596 4.225 7.446 4.225 16.425h4c0-9.453-2.024-15.439-5.225-19.071-3.25-3.687-7.403-4.601-10.815-4.601v4zm12.04 19.672c0 8.825-1.932 13.686-4.233 16.326-2.255 2.588-5.134 3.346-7.807 3.346v4c3.447 0 7.588-1.006 10.823-4.718 3.189-3.66 5.217-9.635 5.217-18.954h-4zm-12.04 19.672h-1.008v4h1.008v-4zm26.064 32.784h2v-2h-2v2zm-53.568 0v-2h-2v2h2zm0 57.168h-2v2h2v-2zm12.456 0v2h2v-2h-2zm0-40.608v-2h-2v2h2zm8.784 0h2v-2h-2v2zm0 38.952h-2v2h2v-2zm12.24 0v2h2v-2h-2zm0-38.952v-2h-2v2h2zm7.92 0h2v-2h-2v2zm0 39.888h-2v2h2v-2zm12.168 0v2h2v-2h-2zm0-58.448H20v4h53.568v-4zm-55.568 2v57.168h4V256.54h-4zm2 59.168h12.456v-4H20v4zm14.456-2V273.1h-4v40.608h4zm-2-38.608h8.784v-4h-8.784v4zm6.784-2v38.952h4V273.1h-4zm2 40.952h12.24v-4H41.24v4zm14.24-2V273.1h-4v38.952h4zm-2-36.952h7.92v-4h-7.92v4zm5.92-2v39.888h4V273.1h-4zm2 41.888h12.168v-4H61.4v4zm14.168-2V256.54h-4v56.448h4zm-2 14.877h2v-2h-2v2zm-53.568 0v-2h-2v2h2zm0 16.56h-2v2h2v-2zm35.496 0l1.431 1.397 3.316-3.397h-4.747v2zM20 380.785l-1.431-1.397-.569.583v.814h2zm0 16.56h-2v2h2v-2zm53.568 0v2h2v-2h-2zm0-16.56h2v-2h-2v2zm-33.696 0l-1.425-1.404-3.353 3.404h4.778v-2zm33.696-34.2l1.425 1.404.575-.584v-.82h-2zm0-20.72H20v4h53.568v-4zm-55.568 2v16.56h4v-16.56h-4zm2 18.56h35.496v-4H20v4zm34.065-3.397l-35.496 36.36 2.862 2.794 35.496-36.36-2.862-2.794zM18 380.785v16.56h4v-16.56h-4zm2 18.56h53.568v-4H20v4zm55.568-2v-16.56h-4v16.56h4zm-2-18.56H39.872v4h33.696v-4zm-32.271 3.404l33.696-34.2-2.85-2.808-33.696 34.2 2.85 2.808zm34.271-35.604v-18.72h-4v18.72h4zm-2 82.951v2h2v-2h-2zm0-16.776h2v-2h-2v2zm-53.568 0v-2h-2v2h2zm0 16.776h-2v2h2v-2zm55.568 0V412.76h-4v16.776h4zm-2-18.776H20v4h53.568v-4zm-55.568 2v16.776h4V412.76h-4zm2 18.776h53.568v-4H20v4zm0 29.225h-2v.841l.601.589 1.399-1.43zm16.632 16.272l1.405 1.424 1.448-1.43-1.454-1.423-1.399 1.429zM20 493.449l-1.405-1.423-.595.587v.836h2zm0 21.096h-2v4.686l3.384-3.242L20 514.545zm27.432-26.28l1.402-1.426-1.384-1.361-1.402 1.343 1.384 1.444zm26.136 25.704l-1.402 1.426 3.402 3.346v-4.772h-2zm0-20.592h2v-.85l-.612-.59-1.388 1.44zm-15.696-15.12l-1.388-1.44-1.495 1.44 1.495 1.441 1.388-1.441zm15.696-15.12l1.388 1.441.612-.59v-.851h-2zm0-22.464h2V435.9l-3.403 3.347 1.403 1.426zm-26.496 26.064l-1.403 1.426 1.403 1.38 1.402-1.38-1.402-1.426zM20 440.097l1.403-1.425L18 435.323v4.774h2zm-1.399 22.094l16.632 16.272 2.798-2.859-16.632-16.272-2.798 2.859zm16.626 13.419l-16.632 16.416 2.81 2.847 16.632-16.416-2.81-2.847zM18 493.449v21.096h4v-21.096h-4zm3.384 22.54l27.431-26.28-2.767-2.888-27.432 26.28 2.768 2.888zm24.646-26.298l26.136 25.704 2.804-2.852-26.136-25.704-2.804 2.852zm29.538 24.278v-20.592h-4v20.592h4zm-.612-22.032l-15.697-15.12-2.775 2.881 15.696 15.12 2.775-2.881zm-15.697-12.239l15.697-15.12-2.776-2.881-15.696 15.12 2.776 2.881zm16.309-16.561v-22.464h-4v22.464h4zm-3.403-23.89L45.67 465.311l2.806 2.852 26.495-26.064-2.805-2.852zm-23.69 26.065l-27.072-26.64-2.806 2.851 27.072 26.64 2.806-2.851zM18 440.097v20.664h4v-20.664h-4z" fill="#fff"/><path d="M99.736 13.152c0 9.144 6.096 10.968 9.456 10.968h8.664v-5.592h-8.328c-2.304 0-5.16-1.056-5.16-5.856 0-4.872 2.856-5.904 5.16-5.904h8.328V1.152h-8.664c-3.36 0-9.456 1.56-9.456 11.136v.864zM100 28.794v5.352h6.096c2.112 0 3.504 1.56 3.504 3.96 0 2.376-1.224 3.456-3.216 3.456H100v5.4h8.16c2.496 0 5.04-1.776 5.04-6.288v-.168c0-3.84-1.848-5.76-2.496-6.408h2.208v-5.304H100zm17.856 28.119V51.56h-3.696v5.352h3.696zm-4.944 0V51.56H100v5.352h12.912zM100 71.13h3.552v-1.464c0-.936.432-1.08 1.128-1.08h4.68v2.544h3.552v-2.544h3.768v-5.28h-3.768v-2.52h-3.552v2.52h-5.688c-2.232 0-3.672.864-3.672 3.192v4.632zm10.272 13.17c0 2.712-.816 3.96-2.184 4.32v-8.64c1.368.408 2.184 1.608 2.184 4.296v.024zm-5.712 9.648v-5.28c-.312-.072-1.656-.648-1.656-4.2v-.024c0-2.952 1.008-4.248 2.52-4.56V94.02h.888c3.144 0 6.96-1.392 6.96-8.976V83.58c0-6.984-3.192-8.952-6.504-8.952h-.528c-3.384 0-6.6 2.208-6.6 9.096v1.368c0 7.704 3.144 8.856 4.896 8.856h.024zm1.872 18.278c-1.656 0-3.336-1.68-3.336-4.848v-.12c0-3.144 1.776-4.344 3.336-4.344h.096c1.68 0 3.312.936 3.312 4.296v.12c0 3.168-1.632 4.896-3.312 4.896h-.096zm11.424 0h-6.672c.528-.6 2.04-2.448 2.04-6.48v-.384c0-5.784-2.976-7.92-6.432-7.92h-.456c-3.624 0-6.648 2.4-6.648 8.136v.312c0 4.152 1.776 6.024 2.28 6.384H100v5.328h17.856v-5.376zM100 137.877h8.424L100 147.309v7.296l9.696-10.752 8.16 10.272v-7.104l-7.44-9.144h7.44v-5.592H100v5.592zm17.856 25.147v-5.352h-3.696v5.352h3.696zm-4.944 0v-5.352H100v5.352h12.912zM100 167.689v5.352h6.096c2.112 0 3.504 1.56 3.504 3.96 0 2.376-1.224 3.456-3.216 3.456H100v5.4h8.16c2.496 0 5.04-1.776 5.04-6.288v-.168c0-3.84-1.848-5.76-2.496-6.408h2.208v-5.304H100zm9.864 32.175c0 3.36-1.392 4.872-2.928 4.872h-.096c-1.488 0-2.976-1.488-2.976-4.872v-.144c0-3.288 1.536-4.416 3-4.416h.12c1.44 0 2.88.96 2.88 4.416v.144zm-14.544 1.272c0 7.92 4.704 9.072 7.032 9.072h10.56v-5.376h-1.728c.648-.696 2.04-2.424 2.04-6.72v-.504c0-5.736-2.88-7.752-6-7.752h-.48c-3.336 0-6.168 2.376-6.168 8.424v.288c0 4.056 1.368 5.64 1.944 6.288-1.656 0-3.72-.624-3.72-4.608v-.072c0-3.672.888-4.056 1.2-4.128v-5.4h-.072c-1.032 0-4.608.672-4.608 8.784v1.704zm11.112 27.912c-1.656 0-3.336-1.68-3.336-4.848v-.12c0-3.144 1.776-4.344 3.336-4.344h.096c1.68 0 3.312.936 3.312 4.296v.12c0 3.168-1.632 4.896-3.312 4.896h-.096zm11.424 0h-6.672c.528-.6 2.04-2.448 2.04-6.48v-.384c0-5.784-2.976-7.92-6.432-7.92h-.456c-3.624 0-6.648 2.4-6.648 8.136v.312c0 4.152 1.776 6.024 2.28 6.384H100v5.328h17.856v-5.376zM99.64 249.452c0 7.968 3.696 9.24 6.672 9.24h.432c2.928 0 6.528-1.368 6.528-9.24v-1.704c0-7.488-3.552-9.264-6.528-9.264h-.432c-2.976 0-6.672 1.8-6.672 9.288v1.68zm3.48-.84c0-3.648 1.824-4.656 3.336-4.656h.12c1.632 0 3.264 1.008 3.264 4.656v.024c0 3.6-1.656 4.632-3.264 4.632h-.12c-1.512 0-3.336-1.008-3.336-4.656zM100 268.094h6.096c2.016 0 3.504 1.392 3.504 3.696 0 2.112-1.32 2.952-3.216 2.952H100v5.4h6.096c2.016 0 3.504 1.392 3.504 3.696 0 2.112-1.32 2.928-3.216 2.928H100v5.4h8.16c2.424 0 5.04-1.656 5.04-5.952v-.192c0-3.456-1.608-5.544-2.568-6.504 1.44-.792 2.568-2.4 2.568-5.16v-.168c0-3.744-1.92-5.544-2.52-6.144h2.232v-5.304H100v5.352z" fill="#FF4656"/></svg>