<svg width="125" height="307" fill="none" xmlns="http://www.w3.org/2000/svg"><path d="M53.912 40.752l2 .036v-.004l-2-.032zm.144-9l-2-.04v.008l2 .032zm2.808 18.144l-.352-1.969-1.648.294v1.675h2zm0 17.424h-2v2h2v-2zM41.816 28.224l-2-.058v.011l2 .047zM41.6 37.44l2 .058v-.011l-2-.047zm-2.592-18.576l.133 1.996 1.867-.125v-1.871h-2zm0-17.496h2v-2h-2v2zM17.064 37.656c0 13.605 2.276 21.99 6.045 26.997 3.888 5.162 9.09 6.395 13.883 6.395v-4c-4.063 0-7.825-1-10.687-4.801-2.98-3.958-5.241-11.268-5.241-24.591h-4zm19.928 33.392H38v-4h-1.008v4zm1.008 0c2.92 0 5.572-.558 7.894-1.833 2.33-1.28 4.203-3.213 5.66-5.763 2.862-5.011 4.176-12.512 4.358-22.664l-4-.072c-.178 10.008-1.492 16.655-3.832 20.752-1.144 2.004-2.516 3.365-4.111 4.24-1.605.881-3.56 1.34-5.969 1.34v4zm17.912-30.264l.144-9-4-.064-.144 9 4 .064zm.144-8.992c.107-5.442.688-8.157 1.321-9.464.29-.6.533-.778.635-.838.11-.064.282-.122.652-.122v-4c-.782 0-1.735.122-2.671.67-.945.552-1.67 1.417-2.216 2.546-1.04 2.149-1.612 5.626-1.72 11.128l3.999.08zm2.608-10.424c.46 0 .64.054.745.11.072.04.313.185.61.823.66 1.417 1.253 4.491 1.253 10.963h4c0-6.488-.56-10.362-1.627-12.653-.567-1.216-1.334-2.114-2.342-2.656-.975-.524-1.948-.587-2.639-.587v4zm2.608 11.896v1.152h4v-1.152h-4zm0 1.152c0 6.881-1.09 10.192-2.123 11.778-.495.758-.983 1.132-1.375 1.341-.411.22-.812.312-1.262.392l.704 3.938c.558-.1 1.462-.278 2.442-.801.998-.533 1.986-1.374 2.841-2.685 1.666-2.555 2.773-6.804 2.773-13.963h-4zm-6.408 15.48V67.32h4V49.896h-4zm2 19.424h.72v-4h-.72v4zm.72 0c4.574 0 9.468-1.674 13.123-6.902 3.564-5.097 5.797-13.358 5.797-26.202h-4c0 12.5-2.195 19.791-5.075 23.91-2.789 3.988-6.355 5.194-9.845 5.194v4zm18.92-33.104v-4.968h-4v4.968h4zm0-4.968c0-12.359-2.1-20.162-5.558-24.91C67.38 1.442 62.6.088 58.16.088v4c3.552 0 6.943 1.022 9.552 4.604 2.717 3.73 4.792 10.507 4.792 22.556h4zM58.16.088h-.648v4h.648v-4zm-.648 0c-4.745 0-9.177 1.784-12.405 6.419-3.133 4.499-4.998 11.493-5.29 21.66l3.998.114c.284-9.85 2.091-15.923 4.574-19.488 2.388-3.429 5.516-4.705 9.123-4.705v-4zm-17.696 28.09l-.216 9.215 4 .094.215-9.216-3.998-.094zm-.215 9.204c-.18 6.202-.763 9.328-1.486 10.874-.33.703-.62.93-.792 1.026-.199.112-.51.198-1.123.198v4c.934 0 2.028-.12 3.076-.707 1.075-.601 1.872-1.562 2.461-2.821 1.113-2.378 1.682-6.272 1.862-12.454l-3.998-.116zM36.2 49.48c-.545 0-.88-.077-1.137-.219-.237-.13-.601-.424-.992-1.22-.843-1.714-1.559-5.232-1.559-12.257h-4c0 7.087.688 11.418 1.97 14.022.67 1.365 1.548 2.35 2.648 2.957 1.08.596 2.175.717 3.07.717v-4zm-3.688-13.696v-1.008h-4v1.008h4zm0-1.008c0-6.716 1.287-10.118 2.615-11.836 1.252-1.618 2.742-1.996 4.014-2.08l-.266-3.992c-1.968.132-4.726.798-6.912 3.626-2.11 2.728-3.451 7.174-3.451 14.282h4zm8.496-15.912V1.368h-4v17.496h4zm-2-19.496h-.792v4h.792v-4zm-.792 0c-3.833 0-9.275.889-13.706 5.789-4.38 4.844-7.446 13.258-7.446 27.531h4c0-13.807 2.982-21.053 6.413-24.849 3.382-3.74 7.516-4.471 10.739-4.471v-4zm-21.152 33.32v4.968h4v-4.968h-4zm24.824 90.505h-2v3.282l2.917-1.505-.917-1.777zm0-20.304l.887-1.793-2.887-1.428v3.221h2zm20.088 9.936l.917 1.777 3.517-1.815-3.547-1.755-.887 1.793zM20 134.425l-.915-1.779-1.085.559v1.22h2zm0 18.072h-2v3.338l2.943-1.575-.943-1.763zm53.568-28.656l.943 1.763 1.057-.565v-1.198h-2zm0-21.744h2v-1.231l-1.098-.554-.902 1.785zM20 75.025l.902-1.785L18 71.773v3.252h2zm0 17.064h-2v1.244l1.116.55.884-1.794zm9.792 4.824h2v-1.245l-1.116-.55-.884 1.795zm0 32.472l.915 1.778 1.085-.558v-1.22h-2zm14.096-6.192v-20.304h-4v20.304h4zm-2.887-18.512l20.088 9.936 1.774-3.585-20.088-9.936L41 104.681zm20.058 6.366L40.97 121.415l1.834 3.555 20.088-10.368-1.834-3.555zM18 134.425v18.072h4v-18.072h-4zm2.943 19.835l53.568-28.656-1.886-3.527-53.568 28.656 1.886 3.527zm54.625-30.419v-21.744h-4v21.744h4zm-1.098-23.529L20.902 73.24l-1.804 3.57 53.568 27.072 1.804-3.57zM18 75.025v17.064h4V75.025h-4zm1.116 18.858l9.792 4.824 1.768-3.588-9.792-4.825-1.768 3.589zm8.676 3.03v32.472h4V96.913h-4zm1.085 30.693l-9.792 5.04 1.83 3.557 9.792-5.04-1.83-3.557zm-.525 91.59l.773 1.844 2.975-1.247-2.44-2.11-1.308 1.513zM20 221.356l-.22-1.988-1.78.197v1.791h2zm0 10.08h-2v2h2v-2zm30.024 0v2h2v-2h-2zm0-37.728h2v-2h-2v2zm-10.152 0v-2h-2v2h2zm0 21.024v2h2v-2h-2zm14.256-1.512l-.666-1.886-1.334.471v1.415h2zm0 17.856h-2v2h2v-2zm.072 0v2h.04l.04-.002-.08-1.998zM17.064 193.42c0 17.209 6.931 24.652 9.98 27.288l2.616-3.025c-2.28-1.972-8.596-8.353-8.596-24.263h-4zm10.514 23.931c-2.04.856-6.028 1.82-7.799 2.017l.442 3.975c2.117-.235 6.481-1.287 8.904-2.303l-1.547-3.689zM18 221.356v10.08h4v-10.08h-4zm2 12.08h30.024v-4H20v4zm32.024-2v-37.728h-4v37.728h4zm-2-39.728H39.872v4h10.152v-4zm-12.152 2v21.024h4v-21.024h-4zm2 19.024h-.144v4h.144v-4zm-.144 0c.271 0 .345.083.164-.012a3.462 3.462 0 01-.664-.484c-.587-.523-1.356-1.43-2.122-2.853-1.527-2.839-3.01-7.68-3.01-15.387h-4c0 8.204 1.577 13.731 3.488 17.282.953 1.772 1.997 3.066 2.983 3.944.49.438.988.791 1.473 1.044.443.232 1.038.466 1.688.466v-4zm-5.632-18.736c0-7.06 1.772-11.608 4.106-14.357 2.317-2.73 5.34-3.875 8.294-3.875v-4c-4.03 0-8.207 1.59-11.344 5.286-3.12 3.677-5.056 9.245-5.056 16.946h4zm12.4-18.232h.792v-4h-.792v4zm.792 0c3.349 0 6.328.899 8.517 3.382 2.236 2.535 3.955 7.061 3.955 14.994h4c0-8.412-1.809-14.073-4.955-17.64-3.193-3.62-7.45-4.736-11.517-4.736v4zM59.76 194.14c0 8.123-1.562 12.347-3.02 14.531-1.402 2.099-2.827 2.503-3.278 2.663l1.332 3.772c.773-.273 3.164-1.057 5.272-4.214 2.052-3.072 3.694-8.172 3.694-16.752h-4zm-7.632 19.08v17.856h4V213.22h-4zm2 19.856h.072v-4h-.072v4zm.151-.002c4.077-.161 9.743-1.727 14.348-7.356 4.567-5.583 7.877-14.907 7.877-30.138h-4c0 14.72-3.206 23.001-6.973 27.605-3.73 4.559-8.215 5.766-11.41 5.892l.158 3.997zm22.225-37.494v-3.096h-4v3.096h4zm0-3.096c0-15.74-4.105-25.409-9.932-31.128-5.816-5.708-13.023-7.16-18.564-7.16v4c4.899 0 10.94 1.283 15.762 6.015 4.81 4.721 8.734 13.196 8.734 28.273h4zm-28.496-38.288h-2.016v4h2.016v-4zm-2.016 0c-5.75 0-13.036 1.793-18.89 7.548-5.875 5.778-10.038 15.282-10.038 30.164h4c0-14.135 3.937-22.487 8.843-27.311 4.929-4.847 11.107-6.401 16.085-6.401v-4zm-28.928 37.712v1.512h4v-1.512h-4zm56.504 54.366h2v-2h-2v2zm-53.568 0v-2h-2v2h2zm0 57.168h-2v2h2v-2zm12.456 0v2h2v-2h-2zm0-40.608v-2h-2v2h2zm8.784 0h2v-2h-2v2zm0 38.952h-2v2h2v-2zm12.24 0v2h2v-2h-2zm0-38.952v-2h-2v2h2zm7.92 0h2v-2h-2v2zm0 39.888h-2v2h2v-2zm12.168 0v2h2v-2h-2zm0-58.448H20v4h53.568v-4zm-55.568 2v57.168h4v-57.168h-4zm2 59.168h12.456v-4H20v4zm14.456-2v-40.608h-4v40.608h4zm-2-38.608h8.784v-4h-8.784v4zm6.784-2v38.952h4v-38.952h-4zm2 40.952h12.24v-4H41.24v4zm14.24-2v-38.952h-4v38.952h4zm-2-36.952h7.92v-4h-7.92v4zm5.92-2v39.888h4v-39.888h-4zm2 41.888h12.168v-4H61.4v4zm14.168-2v-56.448h-4v56.448h4z" fill="#FFF"/><path d="M99.688 13.584c0 10.2 4.992 11.976 7.248 11.976h.264v-5.928c-.408-.144-3.168-.72-3.168-6.504 0-5.208 2.784-6.624 4.896-6.624h.288c2.232 0 4.632 1.224 4.632 6.576 0 5.664-2.496 6.384-2.976 6.528v5.928h.264c2.088 0 7.032-1.608 7.032-11.952V12.6c0-10.56-5.592-11.952-8.832-11.952h-.696c-3.168 0-8.952 1.608-8.952 11.952v.984zM100 29.661v5.352h6.096c2.112 0 3.504 1.56 3.504 3.96 0 2.376-1.224 3.456-3.216 3.456H100v5.4h8.16c2.496 0 5.04-1.824 5.04-6.288v-.168c0-3.84-1.872-5.784-2.448-6.36h7.104V29.66H100zm17.856 28.119v-5.352h-3.696v5.352h3.696zm-4.944 0v-5.352H100v5.352h12.912zM100 62.445v5.352h6.096c2.112 0 3.504 1.56 3.504 3.96 0 2.376-1.224 3.456-3.216 3.456H100v5.4h8.16c2.496 0 5.04-1.776 5.04-6.288v-.168c0-3.84-1.848-5.76-2.496-6.408h2.208v-5.304H100zm5.736 34.167c-1.536 0-3.072-1.848-3.072-4.704 0-1.824.768-2.352 1.464-2.352h.024c.744 0 .984.576 1.2 1.944l.792 5.112h-.408zm-3.96.144c-1.224.192-1.776 1.008-1.776 2.04v4.344h3.504v-.696c0-.552.264-.672.648-.672h4.944c1.872 0 4.176-.48 4.176-7.968v-1.32c0-7.2-2.664-7.704-4.368-7.704h-.048v4.968c.432.072 1.44.192 1.44 3.384v.12c0 3.144-.576 3.36-1.056 3.36-.408 0-.6-.216-.672-.816l-.552-5.904c-.36-3.864-1.488-5.424-3.864-5.424h-.168c-2.208 0-4.224 1.656-4.224 6v.312c0 3.792 1.32 5.424 2.016 5.976z" fill="#FF4656"/></svg>